<svg width="30" height="32" viewBox="0 0 30 32" fill="none" xmlns="http://www.w3.org/2000/svg">
<path d="M28.7121 9.48794C29.4271 11.2056 29.8308 12.9651 29.9543 14.801C30.1384 17.5382 29.7802 20.1851 28.6334 22.6818C26.519 27.285 23.0785 30.3105 18.0624 31.4155C17.2319 31.5985 16.3947 31.7277 15.5543 31.8474C15.2504 31.8907 15.0639 31.808 14.8869 31.5315C13.447 29.2812 11.9876 27.0436 10.5327 24.803C10.4743 24.7131 10.4021 24.6322 10.3418 24.5542C10.1624 24.5732 10.1168 24.7075 10.0481 24.8133C8.5452 27.1267 7.04219 29.44 5.5433 31.7559C5.44068 31.9145 5.33745 32.001 5.1285 31.9996C3.55903 31.9887 1.98936 31.9838 0.419995 31.9999C0.0849063 32.0034 -0.000387869 31.899 1.32394e-06 31.5723C0.00896663 24.0771 0.00927801 16.5819 0.00189537 9.08667C0.00158008 8.76547 0.0786873 8.64841 0.419812 8.6518C2.01099 8.66759 3.60242 8.65718 5.19376 8.65708C5.63619 8.65705 5.64838 8.66846 5.64856 9.11842C5.65033 13.4715 5.65105 17.8246 5.65333 22.1777C5.6534 22.3038 5.62462 22.4354 5.70724 22.5762C5.91495 22.3934 6.02549 22.1529 6.16684 21.9398C6.83598 20.9313 7.50171 19.9203 8.15318 18.9003C8.30149 18.6681 8.47266 18.589 8.74134 18.5924C9.77663 18.6055 10.8123 18.6059 11.8476 18.5914C12.1181 18.5876 12.2832 18.6726 12.4326 18.9018C13.9686 21.2589 15.5144 23.6096 17.0594 25.9609C17.3965 26.4739 17.3974 26.4657 17.974 26.2325C20.7358 25.1151 22.5074 23.0274 23.4606 20.2925C24.7456 16.6052 24.4825 12.9914 22.4451 9.59692C21.0071 7.20116 18.8625 5.78537 16.1442 5.20323C14.8489 4.92583 13.5438 4.81022 12.2198 4.81479C8.30693 4.82828 4.39396 4.82107 0.481012 4.8216C0.00841779 4.82166 0.00784094 4.82061 0.00772721 4.3552C0.00740584 3.03508 0.0148883 1.71489 0.0019792 0.394898C-0.000906755 0.0997574 0.0841239 -0.000671867 0.388801 3.37884e-06C4.73772 0.00966853 9.08682 -0.013897 13.4355 0.0182928C15.8252 0.035983 18.1596 0.437798 20.4085 1.28131C23.2752 2.35659 25.4829 4.24709 27.2001 6.75098C27.7877 7.60782 28.2923 8.50996 28.7121 9.48794Z" fill="#B4EAFF"/>
</svg>
