<svg width="300" height="306" viewBox="0 0 300 306" fill="none" xmlns="http://www.w3.org/2000/svg">
<path d="M0 12C0 5.37259 5.37258 0 12 0H288C294.627 0 300 5.37258 300 12V344H0V12Z" fill="white"/>
<path d="M149.5 89C135.725 89 124.5 100.225 124.5 114C124.5 127.775 135.725 139 149.5 139C163.275 139 174.5 127.775 174.5 114C174.5 100.225 163.275 89 149.5 89ZM161.45 108.25L147.275 122.425C146.925 122.775 146.45 122.975 145.95 122.975C145.45 122.975 144.975 122.775 144.625 122.425L137.55 115.35C136.825 114.625 136.825 113.425 137.55 112.7C138.275 111.975 139.475 111.975 140.2 112.7L145.95 118.45L158.8 105.6C159.525 104.875 160.725 104.875 161.45 105.6C162.175 106.325 162.175 107.5 161.45 108.25Z" fill="#4ED79D"/>
<path d="M85.2292 180V168.1H87.5242V172.809L91.8422 168.1H94.6642L90.2782 172.809L94.7832 180H91.9952L88.6462 174.594L87.5242 175.784V180H85.2292ZM99.4131 180V175.818L95.4011 168.1H98.0021L100.824 174.033H100.314L103.136 168.1H105.72L101.708 175.818V180H99.4131ZM111.702 180.204C110.512 180.204 109.486 179.949 108.625 179.439C107.763 178.918 107.1 178.198 106.636 177.28C106.171 176.351 105.939 175.28 105.939 174.067C105.939 172.854 106.171 171.783 106.636 170.854C107.1 169.925 107.763 169.199 108.625 168.678C109.486 168.157 110.512 167.896 111.702 167.896C113.141 167.896 114.32 168.253 115.238 168.967C116.156 169.681 116.728 170.69 116.955 171.993H114.439C114.291 171.358 113.985 170.865 113.521 170.514C113.056 170.151 112.444 169.97 111.685 169.97C110.971 169.97 110.359 170.14 109.849 170.48C109.339 170.809 108.948 171.279 108.676 171.891C108.415 172.492 108.285 173.217 108.285 174.067C108.285 174.906 108.415 175.631 108.676 176.243C108.948 176.855 109.339 177.325 109.849 177.654C110.359 177.983 110.971 178.147 111.685 178.147C112.444 178.147 113.056 177.983 113.521 177.654C113.985 177.314 114.291 176.844 114.439 176.243H116.955C116.728 177.478 116.156 178.447 115.238 179.15C114.32 179.853 113.141 180.204 111.702 180.204ZM128.27 180.204C127.08 180.204 126.055 179.949 125.193 179.439C124.332 178.918 123.669 178.198 123.204 177.28C122.74 176.351 122.507 175.28 122.507 174.067C122.507 172.854 122.74 171.783 123.204 170.854C123.669 169.925 124.332 169.199 125.193 168.678C126.055 168.157 127.08 167.896 128.27 167.896C129.71 167.896 130.888 168.253 131.806 168.967C132.724 169.681 133.297 170.69 133.523 171.993H131.007C130.86 171.358 130.554 170.865 130.089 170.514C129.625 170.151 129.013 169.97 128.253 169.97C127.539 169.97 126.927 170.14 126.417 170.48C125.907 170.809 125.516 171.279 125.244 171.891C124.984 172.492 124.853 173.217 124.853 174.067C124.853 174.906 124.984 175.631 125.244 176.243C125.516 176.855 125.907 177.325 126.417 177.654C126.927 177.983 127.539 178.147 128.253 178.147C129.013 178.147 129.625 177.983 130.089 177.654C130.554 177.314 130.86 176.844 131.007 176.243H133.523C133.297 177.478 132.724 178.447 131.806 179.15C130.888 179.853 129.71 180.204 128.27 180.204ZM139.478 180.204C138.662 180.204 137.925 180.017 137.268 179.643C136.622 179.258 136.106 178.731 135.721 178.062C135.347 177.382 135.16 176.611 135.16 175.75C135.16 174.866 135.347 174.09 135.721 173.421C136.106 172.741 136.627 172.214 137.285 171.84C137.942 171.466 138.679 171.279 139.495 171.279C140.322 171.279 141.059 171.466 141.705 171.84C142.362 172.214 142.878 172.741 143.252 173.421C143.637 174.09 143.83 174.866 143.83 175.75C143.83 176.623 143.637 177.393 143.252 178.062C142.878 178.731 142.362 179.258 141.705 179.643C141.047 180.017 140.305 180.204 139.478 180.204ZM139.478 178.215C139.852 178.215 140.186 178.124 140.481 177.943C140.787 177.762 141.03 177.484 141.212 177.11C141.393 176.736 141.484 176.277 141.484 175.733C141.484 175.189 141.393 174.736 141.212 174.373C141.042 173.999 140.804 173.721 140.498 173.54C140.203 173.347 139.869 173.251 139.495 173.251C139.132 173.251 138.798 173.347 138.492 173.54C138.186 173.721 137.942 173.999 137.761 174.373C137.579 174.736 137.489 175.189 137.489 175.733C137.489 176.277 137.579 176.736 137.761 177.11C137.942 177.484 138.18 177.762 138.475 177.943C138.781 178.124 139.115 178.215 139.478 178.215ZM145.808 180V171.483H147.814L148.001 172.605C148.273 172.197 148.635 171.874 149.089 171.636C149.542 171.398 150.058 171.279 150.636 171.279C151.066 171.279 151.452 171.336 151.792 171.449C152.143 171.551 152.449 171.715 152.71 171.942C152.97 172.157 153.191 172.424 153.373 172.741C153.69 172.288 154.104 171.931 154.614 171.67C155.124 171.409 155.679 171.279 156.28 171.279C157.028 171.279 157.651 171.426 158.15 171.721C158.66 172.016 159.039 172.452 159.289 173.03C159.549 173.597 159.68 174.294 159.68 175.121V180H157.402V175.342C157.402 174.651 157.266 174.124 156.994 173.761C156.722 173.387 156.308 173.2 155.753 173.2C155.39 173.2 155.067 173.296 154.784 173.489C154.5 173.67 154.279 173.931 154.121 174.271C153.962 174.611 153.883 175.025 153.883 175.512V180H151.605V175.342C151.605 174.651 151.469 174.124 151.197 173.761C150.925 173.387 150.5 173.2 149.922 173.2C149.57 173.2 149.253 173.296 148.97 173.489C148.698 173.67 148.482 173.931 148.324 174.271C148.176 174.611 148.103 175.025 148.103 175.512V180H145.808ZM161.811 183.74V171.483H163.851L164.106 172.656C164.276 172.407 164.486 172.18 164.735 171.976C164.985 171.761 165.285 171.591 165.636 171.466C165.988 171.341 166.396 171.279 166.86 171.279C167.665 171.279 168.373 171.477 168.985 171.874C169.597 172.259 170.079 172.786 170.43 173.455C170.793 174.124 170.974 174.894 170.974 175.767C170.974 176.617 170.793 177.376 170.43 178.045C170.068 178.714 169.58 179.241 168.968 179.626C168.356 180.011 167.659 180.204 166.877 180.204C166.243 180.204 165.693 180.091 165.228 179.864C164.764 179.626 164.39 179.303 164.106 178.895V183.74H161.811ZM166.333 178.198C166.787 178.198 167.183 178.096 167.523 177.892C167.875 177.688 168.147 177.399 168.339 177.025C168.543 176.651 168.645 176.226 168.645 175.75C168.645 175.263 168.543 174.838 168.339 174.475C168.147 174.101 167.875 173.806 167.523 173.591C167.183 173.376 166.787 173.268 166.333 173.268C165.891 173.268 165.495 173.376 165.143 173.591C164.792 173.806 164.52 174.101 164.327 174.475C164.135 174.838 164.038 175.257 164.038 175.733C164.038 176.22 164.135 176.651 164.327 177.025C164.52 177.399 164.792 177.688 165.143 177.892C165.495 178.096 165.891 178.198 166.333 178.198ZM172.951 180V167.76H175.246V180H172.951ZM181.581 180.204C180.719 180.204 179.954 180.023 179.286 179.66C178.628 179.286 178.113 178.77 177.739 178.113C177.376 177.444 177.195 176.679 177.195 175.818C177.195 174.934 177.376 174.152 177.739 173.472C178.101 172.781 178.611 172.242 179.269 171.857C179.937 171.472 180.708 171.279 181.581 171.279C182.431 171.279 183.173 171.466 183.808 171.84C184.442 172.203 184.935 172.701 185.287 173.336C185.649 173.959 185.831 174.673 185.831 175.478C185.831 175.591 185.825 175.722 185.814 175.869C185.814 176.005 185.808 176.147 185.797 176.294H178.827V174.9H183.502C183.479 174.356 183.286 173.925 182.924 173.608C182.572 173.291 182.13 173.132 181.598 173.132C181.201 173.132 180.838 173.223 180.51 173.404C180.181 173.574 179.92 173.84 179.728 174.203C179.546 174.554 179.456 175.008 179.456 175.563V176.056C179.456 176.521 179.541 176.923 179.711 177.263C179.892 177.603 180.141 177.869 180.459 178.062C180.776 178.243 181.144 178.334 181.564 178.334C181.983 178.334 182.329 178.243 182.601 178.062C182.884 177.881 183.099 177.643 183.247 177.348H185.593C185.423 177.881 185.151 178.368 184.777 178.81C184.403 179.241 183.944 179.581 183.4 179.83C182.867 180.079 182.261 180.204 181.581 180.204ZM191.419 180C190.818 180 190.291 179.909 189.838 179.728C189.396 179.535 189.05 179.224 188.801 178.793C188.552 178.351 188.427 177.75 188.427 176.991V173.387H186.965V171.483H188.427L188.682 169.154H190.722V171.483H192.983V173.387H190.722V177.025C190.722 177.41 190.807 177.677 190.977 177.824C191.147 177.971 191.436 178.045 191.844 178.045H192.949V180H191.419ZM198.797 180.204C197.935 180.204 197.17 180.023 196.502 179.66C195.844 179.286 195.329 178.77 194.955 178.113C194.592 177.444 194.411 176.679 194.411 175.818C194.411 174.934 194.592 174.152 194.955 173.472C195.317 172.781 195.827 172.242 196.485 171.857C197.153 171.472 197.924 171.279 198.797 171.279C199.647 171.279 200.389 171.466 201.024 171.84C201.658 172.203 202.151 172.701 202.503 173.336C202.865 173.959 203.047 174.673 203.047 175.478C203.047 175.591 203.041 175.722 203.03 175.869C203.03 176.005 203.024 176.147 203.013 176.294H196.043V174.9H200.718C200.695 174.356 200.502 173.925 200.14 173.608C199.788 173.291 199.346 173.132 198.814 173.132C198.417 173.132 198.054 173.223 197.726 173.404C197.397 173.574 197.136 173.84 196.944 174.203C196.762 174.554 196.672 175.008 196.672 175.563V176.056C196.672 176.521 196.757 176.923 196.927 177.263C197.108 177.603 197.357 177.869 197.675 178.062C197.992 178.243 198.36 178.334 198.78 178.334C199.199 178.334 199.545 178.243 199.817 178.062C200.1 177.881 200.315 177.643 200.463 177.348H202.809C202.639 177.881 202.367 178.368 201.993 178.81C201.619 179.241 201.16 179.581 200.616 179.83C200.083 180.079 199.477 180.204 198.797 180.204ZM208.734 180.204C207.952 180.204 207.249 180.011 206.626 179.626C206.014 179.241 205.527 178.714 205.164 178.045C204.813 177.365 204.637 176.594 204.637 175.733C204.637 174.872 204.813 174.107 205.164 173.438C205.527 172.769 206.02 172.242 206.643 171.857C207.278 171.472 207.986 171.279 208.768 171.279C209.391 171.279 209.935 171.392 210.4 171.619C210.865 171.846 211.233 172.169 211.505 172.588V167.76H213.8V180H211.76L211.505 178.827C211.335 179.065 211.125 179.292 210.876 179.507C210.627 179.722 210.326 179.892 209.975 180.017C209.624 180.142 209.21 180.204 208.734 180.204ZM209.261 178.198C209.726 178.198 210.128 178.096 210.468 177.892C210.819 177.677 211.091 177.388 211.284 177.025C211.477 176.651 211.573 176.22 211.573 175.733C211.573 175.246 211.477 174.821 211.284 174.458C211.091 174.084 210.819 173.795 210.468 173.591C210.117 173.376 209.714 173.268 209.261 173.268C208.83 173.268 208.439 173.376 208.088 173.591C207.737 173.795 207.459 174.084 207.255 174.458C207.062 174.821 206.966 175.246 206.966 175.733C206.966 176.209 207.062 176.634 207.255 177.008C207.459 177.382 207.737 177.677 208.088 177.892C208.439 178.096 208.83 178.198 209.261 178.198Z" fill="#4D4D4D"/>
<path d="M45.4983 224V216.584H43.0023V215.6H49.1823V216.584H46.6983V224H45.4983ZM50.3729 224V215.36H51.5729V218.828C51.7809 218.484 52.0609 218.212 52.4129 218.012C52.7649 217.804 53.1529 217.7 53.5769 217.7C54.0649 217.7 54.4809 217.796 54.8249 217.988C55.1689 218.18 55.4289 218.468 55.6049 218.852C55.7889 219.236 55.8809 219.716 55.8809 220.292V224H54.6929V220.412C54.6929 219.86 54.5689 219.444 54.3209 219.164C54.0729 218.876 53.7209 218.732 53.2649 218.732C52.9529 218.732 52.6689 218.808 52.4129 218.96C52.1569 219.104 51.9529 219.32 51.8009 219.608C51.6489 219.888 51.5729 220.236 51.5729 220.652V224H50.3729ZM59.4665 224.144C58.9705 224.144 58.5585 224.06 58.2305 223.892C57.9025 223.724 57.6585 223.5 57.4985 223.22C57.3385 222.932 57.2585 222.624 57.2585 222.296C57.2585 221.896 57.3625 221.556 57.5705 221.276C57.7785 220.988 58.0745 220.768 58.4585 220.616C58.8425 220.464 59.3025 220.388 59.8385 220.388H61.4105C61.4105 220.036 61.3585 219.744 61.2545 219.512C61.1505 219.28 60.9945 219.108 60.7865 218.996C60.5865 218.876 60.3305 218.816 60.0185 218.816C59.6585 218.816 59.3505 218.904 59.0945 219.08C58.8385 219.248 58.6785 219.5 58.6145 219.836H57.4145C57.4625 219.412 57.6065 219.052 57.8465 218.756C58.0945 218.452 58.4105 218.22 58.7945 218.06C59.1785 217.892 59.5865 217.808 60.0185 217.808C60.5865 217.808 61.0625 217.908 61.4465 218.108C61.8305 218.308 62.1185 218.592 62.3105 218.96C62.5105 219.32 62.6105 219.752 62.6105 220.256V224H61.5665L61.4705 222.98C61.3825 223.14 61.2785 223.292 61.1585 223.436C61.0385 223.58 60.8945 223.704 60.7265 223.808C60.5665 223.912 60.3785 223.992 60.1625 224.048C59.9545 224.112 59.7225 224.144 59.4665 224.144ZM59.6945 223.172C59.9505 223.172 60.1825 223.12 60.3905 223.016C60.5985 222.912 60.7745 222.772 60.9185 222.596C61.0705 222.412 61.1825 222.208 61.2545 221.984C61.3345 221.752 61.3785 221.516 61.3865 221.276V221.24H59.9585C59.6145 221.24 59.3345 221.284 59.1185 221.372C58.9105 221.452 58.7585 221.564 58.6625 221.708C58.5665 221.852 58.5185 222.02 58.5185 222.212C58.5185 222.412 58.5625 222.584 58.6505 222.728C58.7465 222.864 58.8825 222.972 59.0585 223.052C59.2345 223.132 59.4465 223.172 59.6945 223.172ZM64.1773 224V217.952H65.2573L65.3293 218.984C65.5213 218.624 65.7933 218.34 66.1453 218.132C66.4973 217.916 66.9013 217.808 67.3573 217.808C67.8373 217.808 68.2493 217.904 68.5933 218.096C68.9373 218.288 69.2053 218.58 69.3973 218.972C69.5893 219.356 69.6853 219.84 69.6853 220.424V224H68.4853V220.544C68.4853 219.984 68.3613 219.56 68.1133 219.272C67.8653 218.984 67.5053 218.84 67.0333 218.84C66.7213 218.84 66.4413 218.916 66.1933 219.068C65.9453 219.212 65.7453 219.428 65.5933 219.716C65.4493 220.004 65.3773 220.356 65.3773 220.772V224H64.1773ZM75.0477 224L72.2637 220.652L74.8197 217.844H76.2717L73.2357 221.108L73.2477 220.22L76.5597 224H75.0477ZM71.2557 224V215.36H72.4557V224H71.2557ZM79.6075 224.144C79.0635 224.144 78.5995 224.06 78.2155 223.892C77.8315 223.716 77.5315 223.476 77.3155 223.172C77.1075 222.86 76.9835 222.504 76.9435 222.104H78.1555C78.1955 222.296 78.2715 222.472 78.3835 222.632C78.4955 222.792 78.6515 222.924 78.8515 223.028C79.0595 223.124 79.3115 223.172 79.6075 223.172C79.8635 223.172 80.0795 223.136 80.2555 223.064C80.4315 222.984 80.5595 222.876 80.6395 222.74C80.7275 222.604 80.7715 222.456 80.7715 222.296C80.7715 222.064 80.7155 221.888 80.6035 221.768C80.4995 221.64 80.3395 221.544 80.1235 221.48C79.9155 221.408 79.6595 221.348 79.3555 221.3C79.0515 221.244 78.7635 221.176 78.4915 221.096C78.2275 221.008 77.9955 220.896 77.7955 220.76C77.5955 220.624 77.4395 220.456 77.3275 220.256C77.2155 220.048 77.1595 219.8 77.1595 219.512C77.1595 219.16 77.2515 218.848 77.4355 218.576C77.6195 218.304 77.8835 218.092 78.2275 217.94C78.5715 217.78 78.9835 217.7 79.4635 217.7C80.1435 217.7 80.6875 217.86 81.0955 218.18C81.5035 218.5 81.7435 218.948 81.8155 219.524H80.6515C80.6115 219.26 80.4875 219.056 80.2795 218.912C80.0715 218.76 79.7955 218.684 79.4515 218.684C79.0915 218.684 78.8155 218.752 78.6235 218.888C78.4395 219.024 78.3475 219.204 78.3475 219.428C78.3475 219.58 78.3955 219.72 78.4915 219.848C78.5875 219.968 78.7395 220.068 78.9475 220.148C79.1555 220.228 79.4195 220.296 79.7395 220.352C80.1955 220.432 80.5915 220.532 80.9275 220.652C81.2635 220.772 81.5235 220.952 81.7075 221.192C81.8995 221.432 81.9955 221.772 81.9955 222.212C81.9955 222.604 81.8955 222.948 81.6955 223.244C81.5035 223.532 81.2275 223.756 80.8675 223.916C80.5155 224.068 80.0955 224.144 79.6075 224.144ZM86.8733 224V217.136C86.8733 216.72 86.9413 216.38 87.0773 216.116C87.2213 215.852 87.4293 215.66 87.7013 215.54C87.9733 215.42 88.3013 215.36 88.6853 215.36H89.4893V216.38H88.8773C88.5893 216.38 88.3813 216.44 88.2533 216.56C88.1333 216.672 88.0733 216.872 88.0733 217.16V224H86.8733ZM85.9493 218.864V217.844H89.5853V218.864H85.9493ZM93.3517 224.144C92.7757 224.144 92.2597 224.012 91.8037 223.748C91.3557 223.476 91.0037 223.1 90.7477 222.62C90.4917 222.132 90.3637 221.568 90.3637 220.928C90.3637 220.28 90.4917 219.716 90.7477 219.236C91.0117 218.748 91.3677 218.372 91.8157 218.108C92.2717 217.836 92.7877 217.7 93.3637 217.7C93.9477 217.7 94.4637 217.836 94.9117 218.108C95.3677 218.372 95.7237 218.748 95.9797 219.236C96.2357 219.716 96.3637 220.28 96.3637 220.928C96.3637 221.568 96.2317 222.132 95.9677 222.62C95.7117 223.1 95.3557 223.476 94.8997 223.748C94.4517 224.012 93.9357 224.144 93.3517 224.144ZM93.3517 223.112C93.6797 223.112 93.9797 223.032 94.2517 222.872C94.5237 222.704 94.7397 222.46 94.8997 222.14C95.0597 221.812 95.1397 221.408 95.1397 220.928C95.1397 220.44 95.0597 220.036 94.8997 219.716C94.7477 219.388 94.5357 219.144 94.2637 218.984C93.9997 218.816 93.7037 218.732 93.3757 218.732C93.0477 218.732 92.7477 218.816 92.4757 218.984C92.2037 219.144 91.9877 219.388 91.8277 219.716C91.6677 220.036 91.5877 220.44 91.5877 220.928C91.5877 221.408 91.6677 221.812 91.8277 222.14C91.9877 222.46 92.1997 222.704 92.4637 222.872C92.7357 223.032 93.0317 223.112 93.3517 223.112ZM97.787 224V217.844H98.867L98.963 218.984C99.107 218.712 99.291 218.48 99.515 218.288C99.739 218.096 100.003 217.952 100.307 217.856C100.619 217.752 100.967 217.7 101.351 217.7V218.972H100.811C100.571 218.972 100.339 219.004 100.115 219.068C99.899 219.124 99.703 219.224 99.527 219.368C99.359 219.504 99.227 219.692 99.131 219.932C99.035 220.172 98.987 220.476 98.987 220.844V224H97.787ZM107.908 224.144C107.364 224.144 106.9 224.06 106.516 223.892C106.132 223.716 105.832 223.476 105.616 223.172C105.408 222.86 105.284 222.504 105.244 222.104H106.456C106.496 222.296 106.572 222.472 106.684 222.632C106.796 222.792 106.952 222.924 107.152 223.028C107.36 223.124 107.612 223.172 107.908 223.172C108.164 223.172 108.38 223.136 108.556 223.064C108.732 222.984 108.86 222.876 108.94 222.74C109.028 222.604 109.072 222.456 109.072 222.296C109.072 222.064 109.016 221.888 108.904 221.768C108.8 221.64 108.64 221.544 108.424 221.48C108.216 221.408 107.96 221.348 107.656 221.3C107.352 221.244 107.064 221.176 106.792 221.096C106.528 221.008 106.296 220.896 106.096 220.76C105.896 220.624 105.74 220.456 105.628 220.256C105.516 220.048 105.46 219.8 105.46 219.512C105.46 219.16 105.552 218.848 105.736 218.576C105.92 218.304 106.184 218.092 106.528 217.94C106.872 217.78 107.284 217.7 107.764 217.7C108.444 217.7 108.988 217.86 109.396 218.18C109.804 218.5 110.044 218.948 110.116 219.524H108.952C108.912 219.26 108.788 219.056 108.58 218.912C108.372 218.76 108.096 218.684 107.752 218.684C107.392 218.684 107.116 218.752 106.924 218.888C106.74 219.024 106.648 219.204 106.648 219.428C106.648 219.58 106.696 219.72 106.792 219.848C106.888 219.968 107.04 220.068 107.248 220.148C107.456 220.228 107.72 220.296 108.04 220.352C108.496 220.432 108.892 220.532 109.228 220.652C109.564 220.772 109.824 220.952 110.008 221.192C110.2 221.432 110.296 221.772 110.296 222.212C110.296 222.604 110.196 222.948 109.996 223.244C109.804 223.532 109.528 223.756 109.168 223.916C108.816 224.068 108.396 224.144 107.908 224.144ZM113.976 224.144C113.504 224.144 113.096 224.052 112.752 223.868C112.408 223.684 112.14 223.404 111.948 223.028C111.764 222.644 111.672 222.168 111.672 221.6V217.844H112.872V221.468C112.872 222.02 112.996 222.436 113.244 222.716C113.492 222.988 113.844 223.124 114.3 223.124C114.612 223.124 114.888 223.052 115.128 222.908C115.376 222.764 115.572 222.556 115.716 222.284C115.868 222.004 115.944 221.66 115.944 221.252V217.844H117.144V224H116.064L115.992 222.992C115.808 223.352 115.54 223.636 115.188 223.844C114.844 224.044 114.44 224.144 113.976 224.144ZM122.087 224.144C121.743 224.144 121.435 224.096 121.163 224C120.899 223.896 120.667 223.764 120.467 223.604C120.275 223.444 120.119 223.268 119.999 223.076L119.879 224H118.799V215.36H119.999V218.792C120.191 218.464 120.463 218.2 120.815 218C121.175 217.8 121.595 217.7 122.075 217.7C122.651 217.7 123.155 217.84 123.587 218.12C124.027 218.4 124.367 218.78 124.607 219.26C124.855 219.74 124.979 220.292 124.979 220.916C124.979 221.532 124.855 222.084 124.607 222.572C124.367 223.06 124.031 223.444 123.599 223.724C123.167 224.004 122.663 224.144 122.087 224.144ZM121.883 223.1C122.243 223.1 122.563 223.012 122.843 222.836C123.123 222.652 123.343 222.4 123.503 222.08C123.671 221.752 123.755 221.368 123.755 220.928C123.755 220.488 123.671 220.104 123.503 219.776C123.343 219.448 123.123 219.196 122.843 219.02C122.563 218.836 122.243 218.744 121.883 218.744C121.507 218.744 121.179 218.836 120.899 219.02C120.619 219.196 120.399 219.448 120.239 219.776C120.087 220.104 120.011 220.488 120.011 220.928C120.011 221.368 120.087 221.752 120.239 222.08C120.399 222.4 120.619 222.652 120.899 222.836C121.179 223.012 121.507 223.1 121.883 223.1ZM126.404 224V217.844H127.484L127.556 218.696C127.748 218.384 128.004 218.14 128.324 217.964C128.652 217.788 129.008 217.7 129.392 217.7C129.696 217.7 129.972 217.744 130.22 217.832C130.468 217.912 130.684 218.036 130.868 218.204C131.06 218.364 131.212 218.572 131.324 218.828C131.54 218.468 131.828 218.192 132.188 218C132.548 217.8 132.932 217.7 133.34 217.7C133.82 217.7 134.232 217.796 134.576 217.988C134.92 218.18 135.184 218.468 135.368 218.852C135.552 219.228 135.644 219.7 135.644 220.268V224H134.456V220.388C134.456 219.836 134.34 219.424 134.108 219.152C133.876 218.872 133.548 218.732 133.124 218.732C132.844 218.732 132.588 218.804 132.356 218.948C132.132 219.092 131.952 219.308 131.816 219.596C131.688 219.876 131.624 220.216 131.624 220.616V224H130.424V220.388C130.424 219.836 130.308 219.424 130.076 219.152C129.852 218.872 129.528 218.732 129.104 218.732C128.824 218.732 128.568 218.804 128.336 218.948C128.112 219.092 127.932 219.308 127.796 219.596C127.668 219.876 127.604 220.216 127.604 220.616V224H126.404ZM137.316 224V217.844H138.516V224H137.316ZM137.916 216.74C137.684 216.74 137.492 216.668 137.34 216.524C137.196 216.38 137.124 216.196 137.124 215.972C137.124 215.756 137.196 215.58 137.34 215.444C137.492 215.3 137.684 215.228 137.916 215.228C138.14 215.228 138.328 215.3 138.48 215.444C138.632 215.58 138.708 215.756 138.708 215.972C138.708 216.196 138.632 216.38 138.48 216.524C138.328 216.668 138.14 216.74 137.916 216.74ZM142.764 224C142.38 224 142.048 223.94 141.768 223.82C141.488 223.7 141.272 223.5 141.12 223.22C140.968 222.94 140.892 222.56 140.892 222.08V218.864H139.836V217.844H140.892L141.048 216.284H142.092V217.844H143.82V218.864H142.092V222.092C142.092 222.436 142.164 222.672 142.308 222.8C142.452 222.92 142.7 222.98 143.052 222.98H143.784V224H142.764ZM147.698 224C147.314 224 146.982 223.94 146.702 223.82C146.422 223.7 146.206 223.5 146.054 223.22C145.902 222.94 145.826 222.56 145.826 222.08V218.864H144.77V217.844H145.826L145.982 216.284H147.026V217.844H148.754V218.864H147.026V222.092C147.026 222.436 147.098 222.672 147.242 222.8C147.386 222.92 147.634 222.98 147.986 222.98H148.718V224H147.698ZM150.195 224V217.844H151.395V224H150.195ZM150.795 216.74C150.563 216.74 150.371 216.668 150.219 216.524C150.075 216.38 150.003 216.196 150.003 215.972C150.003 215.756 150.075 215.58 150.219 215.444C150.371 215.3 150.563 215.228 150.795 215.228C151.019 215.228 151.207 215.3 151.359 215.444C151.511 215.58 151.587 215.756 151.587 215.972C151.587 216.196 151.511 216.38 151.359 216.524C151.207 216.668 151.019 216.74 150.795 216.74ZM153.111 224V217.952H154.191L154.263 218.984C154.455 218.624 154.727 218.34 155.079 218.132C155.431 217.916 155.835 217.808 156.291 217.808C156.771 217.808 157.183 217.904 157.527 218.096C157.871 218.288 158.139 218.58 158.331 218.972C158.523 219.356 158.619 219.84 158.619 220.424V224H157.419V220.544C157.419 219.984 157.295 219.56 157.047 219.272C156.799 218.984 156.439 218.84 155.967 218.84C155.655 218.84 155.375 218.916 155.127 219.068C154.879 219.212 154.679 219.428 154.527 219.716C154.383 220.004 154.311 220.356 154.311 220.772V224H153.111ZM162.673 226.784C162.105 226.784 161.609 226.712 161.185 226.568C160.761 226.432 160.429 226.22 160.189 225.932C159.957 225.644 159.841 225.292 159.841 224.876C159.841 224.652 159.889 224.428 159.985 224.204C160.081 223.98 160.237 223.768 160.453 223.568C160.669 223.368 160.961 223.188 161.329 223.028L162.025 223.568C161.609 223.728 161.329 223.912 161.185 224.12C161.041 224.336 160.969 224.548 160.969 224.756C160.969 224.996 161.041 225.196 161.185 225.356C161.337 225.516 161.537 225.636 161.785 225.716C162.041 225.796 162.333 225.836 162.661 225.836C162.989 225.836 163.269 225.792 163.501 225.704C163.741 225.616 163.925 225.492 164.053 225.332C164.181 225.18 164.245 224.996 164.245 224.78C164.245 224.5 164.149 224.272 163.957 224.096C163.765 223.928 163.389 223.828 162.829 223.796C162.365 223.764 161.973 223.72 161.653 223.664C161.333 223.608 161.061 223.54 160.837 223.46C160.621 223.38 160.437 223.292 160.285 223.196C160.141 223.1 160.013 223 159.901 222.896V222.62L161.113 221.396L162.109 221.72L160.777 222.932L161.029 222.38C161.109 222.436 161.189 222.492 161.269 222.548C161.357 222.596 161.469 222.64 161.605 222.68C161.741 222.72 161.925 222.76 162.157 222.8C162.397 222.832 162.709 222.864 163.093 222.896C163.645 222.936 164.089 223.032 164.425 223.184C164.761 223.336 165.005 223.544 165.157 223.808C165.317 224.064 165.397 224.376 165.397 224.744C165.397 225.088 165.301 225.416 165.109 225.728C164.917 226.04 164.621 226.292 164.221 226.484C163.821 226.684 163.305 226.784 162.673 226.784ZM162.661 222.116C162.157 222.116 161.725 222.02 161.365 221.828C161.005 221.628 160.733 221.364 160.549 221.036C160.365 220.7 160.273 220.324 160.273 219.908C160.273 219.492 160.365 219.12 160.549 218.792C160.741 218.464 161.013 218.2 161.365 218C161.725 217.8 162.157 217.7 162.661 217.7C163.181 217.7 163.617 217.8 163.969 218C164.329 218.2 164.601 218.464 164.785 218.792C164.969 219.12 165.061 219.492 165.061 219.908C165.061 220.324 164.969 220.7 164.785 221.036C164.601 221.364 164.329 221.628 163.969 221.828C163.617 222.02 163.181 222.116 162.661 222.116ZM162.661 221.156C163.061 221.156 163.377 221.052 163.609 220.844C163.841 220.628 163.957 220.316 163.957 219.908C163.957 219.5 163.841 219.192 163.609 218.984C163.377 218.776 163.061 218.672 162.661 218.672C162.277 218.672 161.961 218.776 161.713 218.984C161.473 219.192 161.353 219.5 161.353 219.908C161.353 220.316 161.473 220.628 161.713 220.844C161.953 221.052 162.269 221.156 162.661 221.156ZM163.681 218.792L163.393 217.844H165.877V218.672L163.681 218.792ZM170.894 226.64L172.334 223.328H171.986L169.61 217.844H170.906L172.79 222.332L174.698 217.844H175.946L172.142 226.64H170.894ZM179.25 224.144C178.674 224.144 178.158 224.012 177.702 223.748C177.254 223.476 176.902 223.1 176.646 222.62C176.39 222.132 176.262 221.568 176.262 220.928C176.262 220.28 176.39 219.716 176.646 219.236C176.91 218.748 177.266 218.372 177.714 218.108C178.17 217.836 178.686 217.7 179.262 217.7C179.846 217.7 180.362 217.836 180.81 218.108C181.266 218.372 181.622 218.748 181.878 219.236C182.134 219.716 182.262 220.28 182.262 220.928C182.262 221.568 182.13 222.132 181.866 222.62C181.61 223.1 181.254 223.476 180.798 223.748C180.35 224.012 179.834 224.144 179.25 224.144ZM179.25 223.112C179.578 223.112 179.878 223.032 180.15 222.872C180.422 222.704 180.638 222.46 180.798 222.14C180.958 221.812 181.038 221.408 181.038 220.928C181.038 220.44 180.958 220.036 180.798 219.716C180.646 219.388 180.434 219.144 180.162 218.984C179.898 218.816 179.602 218.732 179.274 218.732C178.946 218.732 178.646 218.816 178.374 218.984C178.102 219.144 177.886 219.388 177.726 219.716C177.566 220.036 177.486 220.44 177.486 220.928C177.486 221.408 177.566 221.812 177.726 222.14C177.886 222.46 178.098 222.704 178.362 222.872C178.634 223.032 178.93 223.112 179.25 223.112ZM185.929 224.144C185.457 224.144 185.049 224.052 184.705 223.868C184.361 223.684 184.093 223.404 183.901 223.028C183.717 222.644 183.625 222.168 183.625 221.6V217.844H184.825V221.468C184.825 222.02 184.949 222.436 185.197 222.716C185.445 222.988 185.797 223.124 186.253 223.124C186.565 223.124 186.841 223.052 187.081 222.908C187.329 222.764 187.525 222.556 187.669 222.284C187.821 222.004 187.897 221.66 187.897 221.252V217.844H189.097V224H188.017L187.945 222.992C187.761 223.352 187.493 223.636 187.141 223.844C186.797 224.044 186.393 224.144 185.929 224.144ZM190.752 224V217.844H191.832L191.928 218.984C192.072 218.712 192.256 218.48 192.48 218.288C192.704 218.096 192.968 217.952 193.272 217.856C193.584 217.752 193.932 217.7 194.316 217.7V218.972H193.776C193.536 218.972 193.304 219.004 193.08 219.068C192.864 219.124 192.668 219.224 192.492 219.368C192.324 219.504 192.192 219.692 192.096 219.932C192 220.172 191.952 220.476 191.952 220.844V224H190.752ZM201.173 224.144C200.613 224.144 200.113 224.004 199.673 223.724C199.241 223.444 198.905 223.064 198.665 222.584C198.425 222.096 198.305 221.544 198.305 220.928C198.305 220.304 198.425 219.752 198.665 219.272C198.913 218.784 199.253 218.4 199.685 218.12C200.125 217.84 200.633 217.7 201.209 217.7C201.681 217.7 202.093 217.796 202.445 217.988C202.797 218.172 203.073 218.432 203.273 218.768V215.36H204.473V224H203.405L203.285 223.052C203.157 223.244 202.997 223.424 202.805 223.592C202.621 223.752 202.393 223.884 202.121 223.988C201.849 224.092 201.533 224.144 201.173 224.144ZM201.389 223.1C201.765 223.1 202.093 223.012 202.373 222.836C202.661 222.652 202.881 222.4 203.033 222.08C203.185 221.752 203.261 221.368 203.261 220.928C203.261 220.488 203.185 220.104 203.033 219.776C202.881 219.448 202.661 219.196 202.373 219.02C202.093 218.836 201.765 218.744 201.389 218.744C201.029 218.744 200.709 218.836 200.429 219.02C200.149 219.196 199.929 219.448 199.769 219.776C199.609 220.104 199.529 220.488 199.529 220.928C199.529 221.36 199.609 221.74 199.769 222.068C199.929 222.396 200.149 222.652 200.429 222.836C200.709 223.012 201.029 223.1 201.389 223.1ZM208.887 224.144C208.311 224.144 207.795 224.012 207.339 223.748C206.891 223.476 206.539 223.1 206.283 222.62C206.027 222.132 205.899 221.568 205.899 220.928C205.899 220.28 206.027 219.716 206.283 219.236C206.547 218.748 206.903 218.372 207.351 218.108C207.807 217.836 208.323 217.7 208.899 217.7C209.483 217.7 209.999 217.836 210.447 218.108C210.903 218.372 211.259 218.748 211.515 219.236C211.771 219.716 211.899 220.28 211.899 220.928C211.899 221.568 211.767 222.132 211.503 222.62C211.247 223.1 210.891 223.476 210.435 223.748C209.987 224.012 209.471 224.144 208.887 224.144ZM208.887 223.112C209.215 223.112 209.515 223.032 209.787 222.872C210.059 222.704 210.275 222.46 210.435 222.14C210.595 221.812 210.675 221.408 210.675 220.928C210.675 220.44 210.595 220.036 210.435 219.716C210.283 219.388 210.071 219.144 209.799 218.984C209.535 218.816 209.239 218.732 208.911 218.732C208.583 218.732 208.283 218.816 208.011 218.984C207.739 219.144 207.523 219.388 207.363 219.716C207.203 220.036 207.123 220.44 207.123 220.928C207.123 221.408 207.203 221.812 207.363 222.14C207.523 222.46 207.735 222.704 207.999 222.872C208.271 223.032 208.567 223.112 208.887 223.112ZM216.118 224.144C215.534 224.144 215.014 224.008 214.558 223.736C214.102 223.464 213.742 223.088 213.478 222.608C213.222 222.128 213.094 221.572 213.094 220.94C213.094 220.292 213.222 219.728 213.478 219.248C213.742 218.76 214.102 218.38 214.558 218.108C215.014 217.836 215.534 217.7 216.118 217.7C216.854 217.7 217.47 217.896 217.966 218.288C218.462 218.672 218.778 219.196 218.914 219.86H217.666C217.586 219.508 217.402 219.232 217.114 219.032C216.826 218.832 216.49 218.732 216.106 218.732C215.77 218.732 215.466 218.816 215.194 218.984C214.922 219.152 214.706 219.4 214.546 219.728C214.394 220.048 214.318 220.448 214.318 220.928C214.318 221.28 214.362 221.596 214.45 221.876C214.546 222.148 214.674 222.376 214.834 222.56C214.994 222.744 215.182 222.884 215.398 222.98C215.614 223.076 215.85 223.124 216.106 223.124C216.362 223.124 216.598 223.08 216.814 222.992C217.03 222.904 217.21 222.776 217.354 222.608C217.506 222.432 217.61 222.228 217.666 221.996H218.914C218.778 222.636 218.458 223.156 217.954 223.556C217.458 223.948 216.846 224.144 216.118 224.144ZM222.586 224.144C222.114 224.144 221.706 224.052 221.362 223.868C221.018 223.684 220.75 223.404 220.558 223.028C220.374 222.644 220.282 222.168 220.282 221.6V217.844H221.482V221.468C221.482 222.02 221.606 222.436 221.854 222.716C222.102 222.988 222.454 223.124 222.91 223.124C223.222 223.124 223.498 223.052 223.738 222.908C223.986 222.764 224.182 222.556 224.326 222.284C224.478 222.004 224.554 221.66 224.554 221.252V217.844H225.754V224H224.674L224.602 222.992C224.418 223.352 224.15 223.636 223.798 223.844C223.454 224.044 223.05 224.144 222.586 224.144ZM227.408 224V217.844H228.488L228.56 218.696C228.752 218.384 229.008 218.14 229.328 217.964C229.656 217.788 230.012 217.7 230.396 217.7C230.7 217.7 230.976 217.744 231.224 217.832C231.472 217.912 231.688 218.036 231.872 218.204C232.064 218.364 232.216 218.572 232.328 218.828C232.544 218.468 232.832 218.192 233.192 218C233.552 217.8 233.936 217.7 234.344 217.7C234.824 217.7 235.236 217.796 235.58 217.988C235.924 218.18 236.188 218.468 236.372 218.852C236.556 219.228 236.648 219.7 236.648 220.268V224H235.46V220.388C235.46 219.836 235.344 219.424 235.112 219.152C234.88 218.872 234.552 218.732 234.128 218.732C233.848 218.732 233.592 218.804 233.36 218.948C233.136 219.092 232.956 219.308 232.82 219.596C232.692 219.876 232.628 220.216 232.628 220.616V224H231.428V220.388C231.428 219.836 231.312 219.424 231.08 219.152C230.856 218.872 230.532 218.732 230.108 218.732C229.828 218.732 229.572 218.804 229.34 218.948C229.116 219.092 228.936 219.308 228.8 219.596C228.672 219.876 228.608 220.216 228.608 220.616V224H227.408ZM240.96 224.144C240.376 224.144 239.86 224.012 239.412 223.748C238.972 223.476 238.628 223.1 238.38 222.62C238.132 222.14 238.008 221.58 238.008 220.94C238.008 220.292 238.132 219.728 238.38 219.248C238.628 218.76 238.976 218.38 239.424 218.108C239.872 217.836 240.388 217.7 240.972 217.7C241.572 217.7 242.084 217.836 242.508 218.108C242.932 218.372 243.256 218.728 243.48 219.176C243.704 219.616 243.816 220.108 243.816 220.652C243.816 220.732 243.812 220.816 243.804 220.904C243.804 220.992 243.8 221.092 243.792 221.204H238.884V220.364H242.616C242.6 219.836 242.436 219.428 242.124 219.14C241.812 218.844 241.424 218.696 240.96 218.696C240.64 218.696 240.344 218.772 240.072 218.924C239.808 219.076 239.592 219.3 239.424 219.596C239.264 219.884 239.184 220.252 239.184 220.7V221.036C239.184 221.492 239.264 221.88 239.424 222.2C239.584 222.512 239.796 222.748 240.06 222.908C240.332 223.068 240.628 223.148 240.948 223.148C241.348 223.148 241.668 223.068 241.908 222.908C242.148 222.74 242.324 222.516 242.436 222.236H243.648C243.544 222.596 243.368 222.92 243.12 223.208C242.872 223.496 242.564 223.724 242.196 223.892C241.836 224.06 241.424 224.144 240.96 224.144ZM245.162 224V217.952H246.242L246.314 218.984C246.506 218.624 246.778 218.34 247.13 218.132C247.482 217.916 247.886 217.808 248.342 217.808C248.822 217.808 249.234 217.904 249.578 218.096C249.922 218.288 250.19 218.58 250.382 218.972C250.574 219.356 250.67 219.84 250.67 220.424V224H249.47V220.544C249.47 219.984 249.346 219.56 249.098 219.272C248.85 218.984 248.49 218.84 248.018 218.84C247.706 218.84 247.426 218.916 247.178 219.068C246.93 219.212 246.73 219.428 246.578 219.716C246.434 220.004 246.362 220.356 246.362 220.772V224H245.162ZM254.76 224C254.376 224 254.044 223.94 253.764 223.82C253.484 223.7 253.268 223.5 253.116 223.22C252.964 222.94 252.888 222.56 252.888 222.08V218.864H251.832V217.844H252.888L253.044 216.284H254.088V217.844H255.816V218.864H254.088V222.092C254.088 222.436 254.16 222.672 254.304 222.8C254.448 222.92 254.696 222.98 255.048 222.98H255.78V224H254.76ZM40.4002 240L38.5882 233.844H39.7882L41.0962 238.824H40.9642L42.3922 233.844H43.7362L45.1762 238.812L45.0442 238.824L46.3522 233.844H47.5522L45.7402 240H44.5042L43.0042 234.828H43.1482L41.6362 240H40.4002ZM51.1575 240.144C50.5735 240.144 50.0575 240.012 49.6095 239.748C49.1695 239.476 48.8255 239.1 48.5775 238.62C48.3295 238.14 48.2055 237.58 48.2055 236.94C48.2055 236.292 48.3295 235.728 48.5775 235.248C48.8255 234.76 49.1735 234.38 49.6215 234.108C50.0695 233.836 50.5855 233.7 51.1695 233.7C51.7695 233.7 52.2815 233.836 52.7055 234.108C53.1295 234.372 53.4535 234.728 53.6775 235.176C53.9015 235.616 54.0135 236.108 54.0135 236.652C54.0135 236.732 54.0095 236.816 54.0015 236.904C54.0015 236.992 53.9975 237.092 53.9895 237.204H49.0815V236.364H52.8135C52.7975 235.836 52.6335 235.428 52.3215 235.14C52.0095 234.844 51.6215 234.696 51.1575 234.696C50.8375 234.696 50.5415 234.772 50.2695 234.924C50.0055 235.076 49.7895 235.3 49.6215 235.596C49.4615 235.884 49.3815 236.252 49.3815 236.7V237.036C49.3815 237.492 49.4615 237.88 49.6215 238.2C49.7815 238.512 49.9935 238.748 50.2575 238.908C50.5295 239.068 50.8255 239.148 51.1455 239.148C51.5455 239.148 51.8655 239.068 52.1055 238.908C52.3455 238.74 52.5215 238.516 52.6335 238.236H53.8455C53.7415 238.596 53.5655 238.92 53.3175 239.208C53.0695 239.496 52.7615 239.724 52.3935 239.892C52.0335 240.06 51.6215 240.144 51.1575 240.144ZM56.871 231.6L55.743 234.564H54.903L55.563 231.6H56.871ZM58.0546 240V231.36H59.2546V240H58.0546ZM60.9139 240V231.36H62.1139V240H60.9139ZM68.6071 240L66.3031 233.844H67.5631L69.3271 238.848L71.0911 233.844H72.3271L70.0231 240H68.6071ZM75.8489 240.144C75.2649 240.144 74.7489 240.012 74.3009 239.748C73.8609 239.476 73.5169 239.1 73.2689 238.62C73.0209 238.14 72.8969 237.58 72.8969 236.94C72.8969 236.292 73.0209 235.728 73.2689 235.248C73.5169 234.76 73.8649 234.38 74.3129 234.108C74.7609 233.836 75.2769 233.7 75.8609 233.7C76.4609 233.7 76.9729 233.836 77.3969 234.108C77.8209 234.372 78.1449 234.728 78.3689 235.176C78.5929 235.616 78.7049 236.108 78.7049 236.652C78.7049 236.732 78.7009 236.816 78.6929 236.904C78.6929 236.992 78.6889 237.092 78.6809 237.204H73.7729V236.364H77.5049C77.4889 235.836 77.3249 235.428 77.0129 235.14C76.7009 234.844 76.3129 234.696 75.8489 234.696C75.5289 234.696 75.2329 234.772 74.9609 234.924C74.6969 235.076 74.4809 235.3 74.3129 235.596C74.1529 235.884 74.0729 236.252 74.0729 236.7V237.036C74.0729 237.492 74.1529 237.88 74.3129 238.2C74.4729 238.512 74.6849 238.748 74.9489 238.908C75.2209 239.068 75.5169 239.148 75.8369 239.148C76.2369 239.148 76.5569 239.068 76.7969 238.908C77.0369 238.74 77.2129 238.516 77.3249 238.236H78.5369C78.4329 238.596 78.2569 238.92 78.0089 239.208C77.7609 239.496 77.4529 239.724 77.0849 239.892C76.7249 240.06 76.3129 240.144 75.8489 240.144ZM80.0624 240V233.844H81.1424L81.2384 234.984C81.3824 234.712 81.5664 234.48 81.7904 234.288C82.0144 234.096 82.2784 233.952 82.5824 233.856C82.8944 233.752 83.2424 233.7 83.6264 233.7V234.972H83.0864C82.8464 234.972 82.6144 235.004 82.3904 235.068C82.1744 235.124 81.9784 235.224 81.8024 235.368C81.6344 235.504 81.5024 235.692 81.4064 235.932C81.3104 236.172 81.2624 236.476 81.2624 236.844V240H80.0624ZM84.8339 240V233.844H86.0339V240H84.8339ZM85.4339 232.74C85.2019 232.74 85.0099 232.668 84.8579 232.524C84.7139 232.38 84.6419 232.196 84.6419 231.972C84.6419 231.756 84.7139 231.58 84.8579 231.444C85.0099 231.3 85.2019 231.228 85.4339 231.228C85.6579 231.228 85.8459 231.3 85.9979 231.444C86.1499 231.58 86.2259 231.756 86.2259 231.972C86.2259 232.196 86.1499 232.38 85.9979 232.524C85.8459 232.668 85.6579 232.74 85.4339 232.74ZM88.1096 240V233.136C88.1096 232.72 88.1776 232.38 88.3136 232.116C88.4576 231.852 88.6656 231.66 88.9376 231.54C89.2096 231.42 89.5376 231.36 89.9216 231.36H90.7256V232.38H90.1136C89.8256 232.38 89.6176 232.44 89.4896 232.56C89.3696 232.672 89.3096 232.872 89.3096 233.16V240H88.1096ZM87.1856 234.864V233.844H90.8216V234.864H87.1856ZM92.7824 242.64L94.2224 239.328H93.8744L91.4984 233.844H92.7944L94.6784 238.332L96.5864 233.844H97.8344L94.0304 242.64H92.7824ZM102.107 240V233.844H103.307V240H102.107ZM102.707 232.74C102.475 232.74 102.283 232.668 102.131 232.524C101.987 232.38 101.915 232.196 101.915 231.972C101.915 231.756 101.987 231.58 102.131 231.444C102.283 231.3 102.475 231.228 102.707 231.228C102.931 231.228 103.119 231.3 103.271 231.444C103.423 231.58 103.499 231.756 103.499 231.972C103.499 232.196 103.423 232.38 103.271 232.524C103.119 232.668 102.931 232.74 102.707 232.74ZM107.555 240C107.171 240 106.839 239.94 106.559 239.82C106.279 239.7 106.063 239.5 105.911 239.22C105.759 238.94 105.683 238.56 105.683 238.08V234.864H104.627V233.844H105.683L105.839 232.284H106.883V233.844H108.611V234.864H106.883V238.092C106.883 238.436 106.955 238.672 107.099 238.8C107.243 238.92 107.491 238.98 107.843 238.98H108.575V240H107.555ZM115.054 240.144C114.558 240.144 114.146 240.06 113.818 239.892C113.49 239.724 113.246 239.5 113.086 239.22C112.926 238.932 112.846 238.624 112.846 238.296C112.846 237.896 112.95 237.556 113.158 237.276C113.366 236.988 113.662 236.768 114.046 236.616C114.43 236.464 114.89 236.388 115.426 236.388H116.998C116.998 236.036 116.946 235.744 116.842 235.512C116.738 235.28 116.582 235.108 116.374 234.996C116.174 234.876 115.918 234.816 115.606 234.816C115.246 234.816 114.938 234.904 114.682 235.08C114.426 235.248 114.266 235.5 114.202 235.836H113.002C113.05 235.412 113.194 235.052 113.434 234.756C113.682 234.452 113.998 234.22 114.382 234.06C114.766 233.892 115.174 233.808 115.606 233.808C116.174 233.808 116.65 233.908 117.034 234.108C117.418 234.308 117.706 234.592 117.898 234.96C118.098 235.32 118.198 235.752 118.198 236.256V240H117.154L117.058 238.98C116.97 239.14 116.866 239.292 116.746 239.436C116.626 239.58 116.482 239.704 116.314 239.808C116.154 239.912 115.966 239.992 115.75 240.048C115.542 240.112 115.31 240.144 115.054 240.144ZM115.282 239.172C115.538 239.172 115.77 239.12 115.978 239.016C116.186 238.912 116.362 238.772 116.506 238.596C116.658 238.412 116.77 238.208 116.842 237.984C116.922 237.752 116.966 237.516 116.974 237.276V237.24H115.546C115.202 237.24 114.922 237.284 114.706 237.372C114.498 237.452 114.346 237.564 114.25 237.708C114.154 237.852 114.106 238.02 114.106 238.212C114.106 238.412 114.15 238.584 114.238 238.728C114.334 238.864 114.47 238.972 114.646 239.052C114.822 239.132 115.034 239.172 115.282 239.172ZM119.765 240V233.952H120.845L120.917 234.984C121.109 234.624 121.381 234.34 121.733 234.132C122.085 233.916 122.489 233.808 122.945 233.808C123.425 233.808 123.837 233.904 124.181 234.096C124.525 234.288 124.793 234.58 124.985 234.972C125.177 235.356 125.273 235.84 125.273 236.424V240H124.073V236.544C124.073 235.984 123.949 235.56 123.701 235.272C123.453 234.984 123.093 234.84 122.621 234.84C122.309 234.84 122.029 234.916 121.781 235.068C121.533 235.212 121.333 235.428 121.181 235.716C121.037 236.004 120.965 236.356 120.965 236.772V240H119.765ZM129.484 240.144C128.924 240.144 128.424 240.004 127.984 239.724C127.552 239.444 127.216 239.064 126.976 238.584C126.736 238.096 126.616 237.544 126.616 236.928C126.616 236.304 126.736 235.752 126.976 235.272C127.224 234.784 127.564 234.4 127.996 234.12C128.436 233.84 128.944 233.7 129.52 233.7C129.992 233.7 130.404 233.796 130.756 233.988C131.108 234.172 131.384 234.432 131.584 234.768V231.36H132.784V240H131.716L131.596 239.052C131.468 239.244 131.308 239.424 131.116 239.592C130.932 239.752 130.704 239.884 130.432 239.988C130.16 240.092 129.844 240.144 129.484 240.144ZM129.7 239.1C130.076 239.1 130.404 239.012 130.684 238.836C130.972 238.652 131.192 238.4 131.344 238.08C131.496 237.752 131.572 237.368 131.572 236.928C131.572 236.488 131.496 236.104 131.344 235.776C131.192 235.448 130.972 235.196 130.684 235.02C130.404 234.836 130.076 234.744 129.7 234.744C129.34 234.744 129.02 234.836 128.74 235.02C128.46 235.196 128.24 235.448 128.08 235.776C127.92 236.104 127.84 236.488 127.84 236.928C127.84 237.36 127.92 237.74 128.08 238.068C128.24 238.396 128.46 238.652 128.74 238.836C129.02 239.012 129.34 239.1 129.7 239.1ZM140.327 240.144C139.743 240.144 139.223 240.008 138.767 239.736C138.311 239.464 137.951 239.088 137.687 238.608C137.431 238.128 137.303 237.572 137.303 236.94C137.303 236.292 137.431 235.728 137.687 235.248C137.951 234.76 138.311 234.38 138.767 234.108C139.223 233.836 139.743 233.7 140.327 233.7C141.063 233.7 141.679 233.896 142.175 234.288C142.671 234.672 142.987 235.196 143.123 235.86H141.875C141.795 235.508 141.611 235.232 141.323 235.032C141.035 234.832 140.699 234.732 140.315 234.732C139.979 234.732 139.675 234.816 139.403 234.984C139.131 235.152 138.915 235.4 138.755 235.728C138.603 236.048 138.527 236.448 138.527 236.928C138.527 237.28 138.571 237.596 138.659 237.876C138.755 238.148 138.883 238.376 139.043 238.56C139.203 238.744 139.391 238.884 139.607 238.98C139.823 239.076 140.059 239.124 140.315 239.124C140.571 239.124 140.807 239.08 141.023 238.992C141.239 238.904 141.419 238.776 141.563 238.608C141.715 238.432 141.819 238.228 141.875 237.996H143.123C142.987 238.636 142.667 239.156 142.163 239.556C141.667 239.948 141.055 240.144 140.327 240.144ZM147.311 240.144C146.735 240.144 146.219 240.012 145.763 239.748C145.315 239.476 144.963 239.1 144.707 238.62C144.451 238.132 144.323 237.568 144.323 236.928C144.323 236.28 144.451 235.716 144.707 235.236C144.971 234.748 145.327 234.372 145.775 234.108C146.231 233.836 146.747 233.7 147.323 233.7C147.907 233.7 148.423 233.836 148.871 234.108C149.327 234.372 149.683 234.748 149.939 235.236C150.195 235.716 150.323 236.28 150.323 236.928C150.323 237.568 150.191 238.132 149.927 238.62C149.671 239.1 149.315 239.476 148.859 239.748C148.411 240.012 147.895 240.144 147.311 240.144ZM147.311 239.112C147.639 239.112 147.939 239.032 148.211 238.872C148.483 238.704 148.699 238.46 148.859 238.14C149.019 237.812 149.099 237.408 149.099 236.928C149.099 236.44 149.019 236.036 148.859 235.716C148.707 235.388 148.495 235.144 148.223 234.984C147.959 234.816 147.663 234.732 147.335 234.732C147.007 234.732 146.707 234.816 146.435 234.984C146.163 235.144 145.947 235.388 145.787 235.716C145.627 236.036 145.547 236.44 145.547 236.928C145.547 237.408 145.627 237.812 145.787 238.14C145.947 238.46 146.159 238.704 146.423 238.872C146.695 239.032 146.991 239.112 147.311 239.112ZM151.746 240V233.844H152.826L152.898 234.696C153.09 234.384 153.346 234.14 153.666 233.964C153.994 233.788 154.35 233.7 154.734 233.7C155.038 233.7 155.314 233.744 155.562 233.832C155.81 233.912 156.026 234.036 156.21 234.204C156.402 234.364 156.554 234.572 156.666 234.828C156.882 234.468 157.17 234.192 157.53 234C157.89 233.8 158.274 233.7 158.682 233.7C159.162 233.7 159.574 233.796 159.918 233.988C160.262 234.18 160.526 234.468 160.71 234.852C160.894 235.228 160.986 235.7 160.986 236.268V240H159.798V236.388C159.798 235.836 159.682 235.424 159.45 235.152C159.218 234.872 158.89 234.732 158.466 234.732C158.186 234.732 157.93 234.804 157.698 234.948C157.474 235.092 157.294 235.308 157.158 235.596C157.03 235.876 156.966 236.216 156.966 236.616V240H155.766V236.388C155.766 235.836 155.65 235.424 155.418 235.152C155.194 234.872 154.87 234.732 154.446 234.732C154.166 234.732 153.91 234.804 153.678 234.948C153.454 235.092 153.274 235.308 153.138 235.596C153.01 235.876 152.946 236.216 152.946 236.616V240H151.746ZM162.574 242.64V233.844H163.654L163.774 234.78C163.902 234.588 164.058 234.412 164.242 234.252C164.434 234.084 164.662 233.952 164.926 233.856C165.198 233.752 165.51 233.7 165.862 233.7C166.438 233.7 166.942 233.844 167.374 234.132C167.806 234.412 168.142 234.796 168.382 235.284C168.63 235.764 168.754 236.316 168.754 236.94C168.754 237.556 168.63 238.108 168.382 238.596C168.134 239.076 167.794 239.456 167.362 239.736C166.93 240.008 166.43 240.144 165.862 240.144C165.382 240.144 164.962 240.052 164.602 239.868C164.25 239.676 163.974 239.412 163.774 239.076V242.64H162.574ZM165.658 239.1C166.018 239.1 166.338 239.012 166.618 238.836C166.898 238.652 167.118 238.4 167.278 238.08C167.446 237.752 167.53 237.368 167.53 236.928C167.53 236.488 167.446 236.104 167.278 235.776C167.118 235.448 166.898 235.196 166.618 235.02C166.338 234.836 166.018 234.744 165.658 234.744C165.282 234.744 164.954 234.836 164.674 235.02C164.394 235.196 164.174 235.448 164.014 235.776C163.862 236.104 163.786 236.488 163.786 236.928C163.786 237.368 163.862 237.752 164.014 238.08C164.174 238.4 164.394 238.652 164.674 238.836C164.954 239.012 165.282 239.1 165.658 239.1ZM170.18 240V231.36H171.38V240H170.18ZM175.763 240.144C175.179 240.144 174.663 240.012 174.215 239.748C173.775 239.476 173.431 239.1 173.183 238.62C172.935 238.14 172.811 237.58 172.811 236.94C172.811 236.292 172.935 235.728 173.183 235.248C173.431 234.76 173.779 234.38 174.227 234.108C174.675 233.836 175.191 233.7 175.775 233.7C176.375 233.7 176.887 233.836 177.311 234.108C177.735 234.372 178.059 234.728 178.283 235.176C178.507 235.616 178.619 236.108 178.619 236.652C178.619 236.732 178.615 236.816 178.607 236.904C178.607 236.992 178.603 237.092 178.595 237.204H173.687V236.364H177.419C177.403 235.836 177.239 235.428 176.927 235.14C176.615 234.844 176.227 234.696 175.763 234.696C175.443 234.696 175.147 234.772 174.875 234.924C174.611 235.076 174.395 235.3 174.227 235.596C174.067 235.884 173.987 236.252 173.987 236.7V237.036C173.987 237.492 174.067 237.88 174.227 238.2C174.387 238.512 174.599 238.748 174.863 238.908C175.135 239.068 175.431 239.148 175.751 239.148C176.151 239.148 176.471 239.068 176.711 238.908C176.951 238.74 177.127 238.516 177.239 238.236H178.451C178.347 238.596 178.171 238.92 177.923 239.208C177.675 239.496 177.367 239.724 176.999 239.892C176.639 240.06 176.227 240.144 175.763 240.144ZM182.332 240C181.948 240 181.616 239.94 181.336 239.82C181.056 239.7 180.84 239.5 180.688 239.22C180.536 238.94 180.46 238.56 180.46 238.08V234.864H179.404V233.844H180.46L180.616 232.284H181.66V233.844H183.388V234.864H181.66V238.092C181.66 238.436 181.732 238.672 181.876 238.8C182.02 238.92 182.268 238.98 182.62 238.98H183.352V240H182.332ZM187.306 240.144C186.722 240.144 186.206 240.012 185.758 239.748C185.318 239.476 184.974 239.1 184.726 238.62C184.478 238.14 184.354 237.58 184.354 236.94C184.354 236.292 184.478 235.728 184.726 235.248C184.974 234.76 185.322 234.38 185.77 234.108C186.218 233.836 186.734 233.7 187.318 233.7C187.918 233.7 188.43 233.836 188.854 234.108C189.278 234.372 189.602 234.728 189.826 235.176C190.05 235.616 190.162 236.108 190.162 236.652C190.162 236.732 190.158 236.816 190.15 236.904C190.15 236.992 190.146 237.092 190.138 237.204H185.23V236.364H188.962C188.946 235.836 188.782 235.428 188.47 235.14C188.158 234.844 187.77 234.696 187.306 234.696C186.986 234.696 186.69 234.772 186.418 234.924C186.154 235.076 185.938 235.3 185.77 235.596C185.61 235.884 185.53 236.252 185.53 236.7V237.036C185.53 237.492 185.61 237.88 185.77 238.2C185.93 238.512 186.142 238.748 186.406 238.908C186.678 239.068 186.974 239.148 187.294 239.148C187.694 239.148 188.014 239.068 188.254 238.908C188.494 238.74 188.67 238.516 188.782 238.236H189.994C189.89 238.596 189.714 238.92 189.466 239.208C189.218 239.496 188.91 239.724 188.542 239.892C188.182 240.06 187.77 240.144 187.306 240.144ZM195.333 242.64L196.773 239.328H196.425L194.049 233.844H195.345L197.229 238.332L199.137 233.844H200.385L196.581 242.64H195.333ZM203.69 240.144C203.114 240.144 202.598 240.012 202.142 239.748C201.694 239.476 201.342 239.1 201.086 238.62C200.83 238.132 200.702 237.568 200.702 236.928C200.702 236.28 200.83 235.716 201.086 235.236C201.35 234.748 201.706 234.372 202.154 234.108C202.61 233.836 203.126 233.7 203.702 233.7C204.286 233.7 204.802 233.836 205.25 234.108C205.706 234.372 206.062 234.748 206.318 235.236C206.574 235.716 206.702 236.28 206.702 236.928C206.702 237.568 206.57 238.132 206.306 238.62C206.05 239.1 205.694 239.476 205.238 239.748C204.79 240.012 204.274 240.144 203.69 240.144ZM203.69 239.112C204.018 239.112 204.318 239.032 204.59 238.872C204.862 238.704 205.078 238.46 205.238 238.14C205.398 237.812 205.478 237.408 205.478 236.928C205.478 236.44 205.398 236.036 205.238 235.716C205.086 235.388 204.874 235.144 204.602 234.984C204.338 234.816 204.042 234.732 203.714 234.732C203.386 234.732 203.086 234.816 202.814 234.984C202.542 235.144 202.326 235.388 202.166 235.716C202.006 236.036 201.926 236.44 201.926 236.928C201.926 237.408 202.006 237.812 202.166 238.14C202.326 238.46 202.538 238.704 202.802 238.872C203.074 239.032 203.37 239.112 203.69 239.112ZM210.369 240.144C209.897 240.144 209.489 240.052 209.145 239.868C208.801 239.684 208.533 239.404 208.341 239.028C208.157 238.644 208.065 238.168 208.065 237.6V233.844H209.265V237.468C209.265 238.02 209.389 238.436 209.637 238.716C209.885 238.988 210.237 239.124 210.693 239.124C211.005 239.124 211.281 239.052 211.521 238.908C211.769 238.764 211.965 238.556 212.109 238.284C212.261 238.004 212.337 237.66 212.337 237.252V233.844H213.537V240H212.457L212.385 238.992C212.201 239.352 211.933 239.636 211.581 239.844C211.237 240.044 210.833 240.144 210.369 240.144ZM215.191 240V233.844H216.271L216.367 234.984C216.511 234.712 216.695 234.48 216.919 234.288C217.143 234.096 217.407 233.952 217.711 233.856C218.023 233.752 218.371 233.7 218.755 233.7V234.972H218.215C217.975 234.972 217.743 235.004 217.519 235.068C217.303 235.124 217.107 235.224 216.931 235.368C216.763 235.504 216.631 235.692 216.535 235.932C216.439 236.172 216.391 236.476 216.391 236.844V240H215.191ZM223.033 240V231.6H224.233V235.248L227.593 231.6H229.093L225.985 234.936L229.153 240H227.689L225.121 235.872L224.233 236.82V240H223.033ZM232.445 240V236.88L229.685 231.6H231.041L233.141 235.896H232.961L235.061 231.6H236.405L233.645 236.88V240H232.445ZM240.591 240.144C239.775 240.144 239.071 239.964 238.479 239.604C237.887 239.236 237.431 238.728 237.111 238.08C236.791 237.424 236.631 236.664 236.631 235.8C236.631 234.944 236.791 234.188 237.111 233.532C237.431 232.876 237.887 232.368 238.479 232.008C239.071 231.64 239.775 231.456 240.591 231.456C241.567 231.456 242.359 231.692 242.967 232.164C243.575 232.636 243.963 233.3 244.131 234.156H242.823C242.695 233.66 242.447 233.264 242.079 232.968C241.711 232.672 241.211 232.524 240.579 232.524C240.027 232.524 239.543 232.656 239.127 232.92C238.719 233.184 238.403 233.56 238.179 234.048C237.963 234.536 237.855 235.12 237.855 235.8C237.855 236.48 237.963 237.068 238.179 237.564C238.403 238.052 238.719 238.428 239.127 238.692C239.543 238.948 240.027 239.076 240.579 239.076C241.211 239.076 241.711 238.936 242.079 238.656C242.447 238.368 242.695 237.98 242.823 237.492H244.131C243.963 238.324 243.575 238.976 242.967 239.448C242.359 239.912 241.567 240.144 240.591 240.144ZM250.617 240.144C250.121 240.144 249.709 240.06 249.381 239.892C249.053 239.724 248.809 239.5 248.649 239.22C248.489 238.932 248.409 238.624 248.409 238.296C248.409 237.896 248.513 237.556 248.721 237.276C248.929 236.988 249.225 236.768 249.609 236.616C249.993 236.464 250.453 236.388 250.989 236.388H252.561C252.561 236.036 252.509 235.744 252.405 235.512C252.301 235.28 252.145 235.108 251.937 234.996C251.737 234.876 251.481 234.816 251.169 234.816C250.809 234.816 250.501 234.904 250.245 235.08C249.989 235.248 249.829 235.5 249.765 235.836H248.565C248.613 235.412 248.757 235.052 248.997 234.756C249.245 234.452 249.561 234.22 249.945 234.06C250.329 233.892 250.737 233.808 251.169 233.808C251.737 233.808 252.213 233.908 252.597 234.108C252.981 234.308 253.269 234.592 253.461 234.96C253.661 235.32 253.761 235.752 253.761 236.256V240H252.717L252.621 238.98C252.533 239.14 252.429 239.292 252.309 239.436C252.189 239.58 252.045 239.704 251.877 239.808C251.717 239.912 251.529 239.992 251.313 240.048C251.105 240.112 250.873 240.144 250.617 240.144ZM250.845 239.172C251.101 239.172 251.333 239.12 251.541 239.016C251.749 238.912 251.925 238.772 252.069 238.596C252.221 238.412 252.333 238.208 252.405 237.984C252.485 237.752 252.529 237.516 252.537 237.276V237.24H251.109C250.765 237.24 250.485 237.284 250.269 237.372C250.061 237.452 249.909 237.564 249.813 237.708C249.717 237.852 249.669 238.02 249.669 238.212C249.669 238.412 249.713 238.584 249.801 238.728C249.897 238.864 250.033 238.972 250.209 239.052C250.385 239.132 250.597 239.172 250.845 239.172ZM257.68 240.144C257.136 240.144 256.672 240.06 256.288 239.892C255.904 239.716 255.604 239.476 255.388 239.172C255.18 238.86 255.056 238.504 255.016 238.104H256.228C256.268 238.296 256.344 238.472 256.456 238.632C256.568 238.792 256.724 238.924 256.924 239.028C257.132 239.124 257.384 239.172 257.68 239.172C257.936 239.172 258.152 239.136 258.328 239.064C258.504 238.984 258.632 238.876 258.712 238.74C258.8 238.604 258.844 238.456 258.844 238.296C258.844 238.064 258.788 237.888 258.676 237.768C258.572 237.64 258.412 237.544 258.196 237.48C257.988 237.408 257.732 237.348 257.428 237.3C257.124 237.244 256.836 237.176 256.564 237.096C256.3 237.008 256.068 236.896 255.868 236.76C255.668 236.624 255.512 236.456 255.4 236.256C255.288 236.048 255.232 235.8 255.232 235.512C255.232 235.16 255.324 234.848 255.508 234.576C255.692 234.304 255.956 234.092 256.3 233.94C256.644 233.78 257.056 233.7 257.536 233.7C258.216 233.7 258.76 233.86 259.168 234.18C259.576 234.5 259.816 234.948 259.888 235.524H258.724C258.684 235.26 258.56 235.056 258.352 234.912C258.144 234.76 257.868 234.684 257.524 234.684C257.164 234.684 256.888 234.752 256.696 234.888C256.512 235.024 256.42 235.204 256.42 235.428C256.42 235.58 256.468 235.72 256.564 235.848C256.66 235.968 256.812 236.068 257.02 236.148C257.228 236.228 257.492 236.296 257.812 236.352C258.268 236.432 258.664 236.532 259 236.652C259.336 236.772 259.596 236.952 259.78 237.192C259.972 237.432 260.068 237.772 260.068 238.212C260.068 238.604 259.968 238.948 259.768 239.244C259.576 239.532 259.3 239.756 258.94 239.916C258.588 240.068 258.168 240.144 257.68 240.144ZM105.553 256.144C105.009 256.144 104.545 256.06 104.161 255.892C103.777 255.716 103.477 255.476 103.261 255.172C103.053 254.86 102.929 254.504 102.889 254.104H104.101C104.141 254.296 104.217 254.472 104.329 254.632C104.441 254.792 104.597 254.924 104.797 255.028C105.005 255.124 105.257 255.172 105.553 255.172C105.809 255.172 106.025 255.136 106.201 255.064C106.377 254.984 106.505 254.876 106.585 254.74C106.673 254.604 106.717 254.456 106.717 254.296C106.717 254.064 106.661 253.888 106.549 253.768C106.445 253.64 106.285 253.544 106.069 253.48C105.861 253.408 105.605 253.348 105.301 253.3C104.997 253.244 104.709 253.176 104.437 253.096C104.173 253.008 103.941 252.896 103.741 252.76C103.541 252.624 103.385 252.456 103.273 252.256C103.161 252.048 103.105 251.8 103.105 251.512C103.105 251.16 103.197 250.848 103.381 250.576C103.565 250.304 103.829 250.092 104.173 249.94C104.517 249.78 104.929 249.7 105.409 249.7C106.089 249.7 106.633 249.86 107.041 250.18C107.449 250.5 107.689 250.948 107.761 251.524H106.597C106.557 251.26 106.433 251.056 106.225 250.912C106.017 250.76 105.741 250.684 105.397 250.684C105.037 250.684 104.761 250.752 104.569 250.888C104.385 251.024 104.293 251.204 104.293 251.428C104.293 251.58 104.341 251.72 104.437 251.848C104.533 251.968 104.685 252.068 104.893 252.148C105.101 252.228 105.365 252.296 105.685 252.352C106.141 252.432 106.537 252.532 106.873 252.652C107.209 252.772 107.469 252.952 107.653 253.192C107.845 253.432 107.941 253.772 107.941 254.212C107.941 254.604 107.841 254.948 107.641 255.244C107.449 255.532 107.173 255.756 106.813 255.916C106.461 256.068 106.041 256.144 105.553 256.144ZM112.137 256.144C111.561 256.144 111.045 256.012 110.589 255.748C110.141 255.476 109.789 255.1 109.533 254.62C109.277 254.132 109.149 253.568 109.149 252.928C109.149 252.28 109.277 251.716 109.533 251.236C109.797 250.748 110.153 250.372 110.601 250.108C111.057 249.836 111.573 249.7 112.149 249.7C112.733 249.7 113.249 249.836 113.697 250.108C114.153 250.372 114.509 250.748 114.765 251.236C115.021 251.716 115.149 252.28 115.149 252.928C115.149 253.568 115.017 254.132 114.753 254.62C114.497 255.1 114.141 255.476 113.685 255.748C113.237 256.012 112.721 256.144 112.137 256.144ZM112.137 255.112C112.465 255.112 112.765 255.032 113.037 254.872C113.309 254.704 113.525 254.46 113.685 254.14C113.845 253.812 113.925 253.408 113.925 252.928C113.925 252.44 113.845 252.036 113.685 251.716C113.533 251.388 113.321 251.144 113.049 250.984C112.785 250.816 112.489 250.732 112.161 250.732C111.833 250.732 111.533 250.816 111.261 250.984C110.989 251.144 110.773 251.388 110.613 251.716C110.453 252.036 110.373 252.44 110.373 252.928C110.373 253.408 110.453 253.812 110.613 254.14C110.773 254.46 110.985 254.704 111.249 254.872C111.521 255.032 111.817 255.112 112.137 255.112ZM119.332 256.144C118.756 256.144 118.24 256.012 117.784 255.748C117.336 255.476 116.984 255.1 116.728 254.62C116.472 254.132 116.344 253.568 116.344 252.928C116.344 252.28 116.472 251.716 116.728 251.236C116.992 250.748 117.348 250.372 117.796 250.108C118.252 249.836 118.768 249.7 119.344 249.7C119.928 249.7 120.444 249.836 120.892 250.108C121.348 250.372 121.704 250.748 121.96 251.236C122.216 251.716 122.344 252.28 122.344 252.928C122.344 253.568 122.212 254.132 121.948 254.62C121.692 255.1 121.336 255.476 120.88 255.748C120.432 256.012 119.916 256.144 119.332 256.144ZM119.332 255.112C119.66 255.112 119.96 255.032 120.232 254.872C120.504 254.704 120.72 254.46 120.88 254.14C121.04 253.812 121.12 253.408 121.12 252.928C121.12 252.44 121.04 252.036 120.88 251.716C120.728 251.388 120.516 251.144 120.244 250.984C119.98 250.816 119.684 250.732 119.356 250.732C119.028 250.732 118.728 250.816 118.456 250.984C118.184 251.144 117.968 251.388 117.808 251.716C117.648 252.036 117.568 252.44 117.568 252.928C117.568 253.408 117.648 253.812 117.808 254.14C117.968 254.46 118.18 254.704 118.444 254.872C118.716 255.032 119.012 255.112 119.332 255.112ZM123.755 256V249.952H124.835L124.907 250.984C125.099 250.624 125.371 250.34 125.723 250.132C126.075 249.916 126.479 249.808 126.935 249.808C127.415 249.808 127.827 249.904 128.171 250.096C128.515 250.288 128.783 250.58 128.975 250.972C129.167 251.356 129.263 251.84 129.263 252.424V256H128.063V252.544C128.063 251.984 127.939 251.56 127.691 251.272C127.443 250.984 127.083 250.84 126.611 250.84C126.299 250.84 126.019 250.916 125.771 251.068C125.523 251.212 125.323 251.428 125.171 251.716C125.027 252.004 124.955 252.356 124.955 252.772V256H123.755ZM135.92 256.144C135.424 256.144 135.012 256.06 134.684 255.892C134.356 255.724 134.112 255.5 133.952 255.22C133.792 254.932 133.712 254.624 133.712 254.296C133.712 253.896 133.816 253.556 134.024 253.276C134.232 252.988 134.528 252.768 134.912 252.616C135.296 252.464 135.756 252.388 136.292 252.388H137.864C137.864 252.036 137.812 251.744 137.708 251.512C137.604 251.28 137.448 251.108 137.24 250.996C137.04 250.876 136.784 250.816 136.472 250.816C136.112 250.816 135.804 250.904 135.548 251.08C135.292 251.248 135.132 251.5 135.068 251.836H133.868C133.916 251.412 134.06 251.052 134.3 250.756C134.548 250.452 134.864 250.22 135.248 250.06C135.632 249.892 136.04 249.808 136.472 249.808C137.04 249.808 137.516 249.908 137.9 250.108C138.284 250.308 138.572 250.592 138.764 250.96C138.964 251.32 139.064 251.752 139.064 252.256V256H138.02L137.924 254.98C137.836 255.14 137.732 255.292 137.612 255.436C137.492 255.58 137.348 255.704 137.18 255.808C137.02 255.912 136.832 255.992 136.616 256.048C136.408 256.112 136.176 256.144 135.92 256.144ZM136.148 255.172C136.404 255.172 136.636 255.12 136.844 255.016C137.052 254.912 137.228 254.772 137.372 254.596C137.524 254.412 137.636 254.208 137.708 253.984C137.788 253.752 137.832 253.516 137.84 253.276V253.24H136.412C136.068 253.24 135.788 253.284 135.572 253.372C135.364 253.452 135.212 253.564 135.116 253.708C135.02 253.852 134.972 254.02 134.972 254.212C134.972 254.412 135.016 254.584 135.104 254.728C135.2 254.864 135.336 254.972 135.512 255.052C135.688 255.132 135.9 255.172 136.148 255.172ZM142.982 256.144C142.438 256.144 141.974 256.06 141.59 255.892C141.206 255.716 140.906 255.476 140.69 255.172C140.482 254.86 140.358 254.504 140.318 254.104H141.53C141.57 254.296 141.646 254.472 141.758 254.632C141.87 254.792 142.026 254.924 142.226 255.028C142.434 255.124 142.686 255.172 142.982 255.172C143.238 255.172 143.454 255.136 143.63 255.064C143.806 254.984 143.934 254.876 144.014 254.74C144.102 254.604 144.146 254.456 144.146 254.296C144.146 254.064 144.09 253.888 143.978 253.768C143.874 253.64 143.714 253.544 143.498 253.48C143.29 253.408 143.034 253.348 142.73 253.3C142.426 253.244 142.138 253.176 141.866 253.096C141.602 253.008 141.37 252.896 141.17 252.76C140.97 252.624 140.814 252.456 140.702 252.256C140.59 252.048 140.534 251.8 140.534 251.512C140.534 251.16 140.626 250.848 140.81 250.576C140.994 250.304 141.258 250.092 141.602 249.94C141.946 249.78 142.358 249.7 142.838 249.7C143.518 249.7 144.062 249.86 144.47 250.18C144.878 250.5 145.118 250.948 145.19 251.524H144.026C143.986 251.26 143.862 251.056 143.654 250.912C143.446 250.76 143.17 250.684 142.826 250.684C142.466 250.684 142.19 250.752 141.998 250.888C141.814 251.024 141.722 251.204 141.722 251.428C141.722 251.58 141.77 251.72 141.866 251.848C141.962 251.968 142.114 252.068 142.322 252.148C142.53 252.228 142.794 252.296 143.114 252.352C143.57 252.432 143.966 252.532 144.302 252.652C144.638 252.772 144.898 252.952 145.082 253.192C145.274 253.432 145.37 253.772 145.37 254.212C145.37 254.604 145.27 254.948 145.07 255.244C144.878 255.532 144.602 255.756 144.242 255.916C143.89 256.068 143.47 256.144 142.982 256.144ZM149.9 258.64V249.844H150.98L151.1 250.78C151.228 250.588 151.384 250.412 151.568 250.252C151.76 250.084 151.988 249.952 152.252 249.856C152.524 249.752 152.836 249.7 153.188 249.7C153.764 249.7 154.268 249.844 154.7 250.132C155.132 250.412 155.468 250.796 155.708 251.284C155.956 251.764 156.08 252.316 156.08 252.94C156.08 253.556 155.956 254.108 155.708 254.596C155.46 255.076 155.12 255.456 154.688 255.736C154.256 256.008 153.756 256.144 153.188 256.144C152.708 256.144 152.288 256.052 151.928 255.868C151.576 255.676 151.3 255.412 151.1 255.076V258.64H149.9ZM152.984 255.1C153.344 255.1 153.664 255.012 153.944 254.836C154.224 254.652 154.444 254.4 154.604 254.08C154.772 253.752 154.856 253.368 154.856 252.928C154.856 252.488 154.772 252.104 154.604 251.776C154.444 251.448 154.224 251.196 153.944 251.02C153.664 250.836 153.344 250.744 152.984 250.744C152.608 250.744 152.28 250.836 152 251.02C151.72 251.196 151.5 251.448 151.34 251.776C151.188 252.104 151.112 252.488 151.112 252.928C151.112 253.368 151.188 253.752 151.34 254.08C151.5 254.4 151.72 254.652 152 254.836C152.28 255.012 152.608 255.1 152.984 255.1ZM160.266 256.144C159.69 256.144 159.174 256.012 158.718 255.748C158.27 255.476 157.918 255.1 157.662 254.62C157.406 254.132 157.278 253.568 157.278 252.928C157.278 252.28 157.406 251.716 157.662 251.236C157.926 250.748 158.282 250.372 158.73 250.108C159.186 249.836 159.702 249.7 160.278 249.7C160.862 249.7 161.378 249.836 161.826 250.108C162.282 250.372 162.638 250.748 162.894 251.236C163.15 251.716 163.278 252.28 163.278 252.928C163.278 253.568 163.146 254.132 162.882 254.62C162.626 255.1 162.27 255.476 161.814 255.748C161.366 256.012 160.85 256.144 160.266 256.144ZM160.266 255.112C160.594 255.112 160.894 255.032 161.166 254.872C161.438 254.704 161.654 254.46 161.814 254.14C161.974 253.812 162.054 253.408 162.054 252.928C162.054 252.44 161.974 252.036 161.814 251.716C161.662 251.388 161.45 251.144 161.178 250.984C160.914 250.816 160.618 250.732 160.29 250.732C159.962 250.732 159.662 250.816 159.39 250.984C159.118 251.144 158.902 251.388 158.742 251.716C158.582 252.036 158.502 252.44 158.502 252.928C158.502 253.408 158.582 253.812 158.742 254.14C158.902 254.46 159.114 254.704 159.378 254.872C159.65 255.032 159.946 255.112 160.266 255.112ZM167.041 256.144C166.497 256.144 166.033 256.06 165.649 255.892C165.265 255.716 164.965 255.476 164.749 255.172C164.541 254.86 164.417 254.504 164.377 254.104H165.589C165.629 254.296 165.705 254.472 165.817 254.632C165.929 254.792 166.085 254.924 166.285 255.028C166.493 255.124 166.745 255.172 167.041 255.172C167.297 255.172 167.513 255.136 167.689 255.064C167.865 254.984 167.993 254.876 168.073 254.74C168.161 254.604 168.205 254.456 168.205 254.296C168.205 254.064 168.149 253.888 168.037 253.768C167.933 253.64 167.773 253.544 167.557 253.48C167.349 253.408 167.093 253.348 166.789 253.3C166.485 253.244 166.197 253.176 165.925 253.096C165.661 253.008 165.429 252.896 165.229 252.76C165.029 252.624 164.873 252.456 164.761 252.256C164.649 252.048 164.593 251.8 164.593 251.512C164.593 251.16 164.685 250.848 164.869 250.576C165.053 250.304 165.317 250.092 165.661 249.94C166.005 249.78 166.417 249.7 166.897 249.7C167.577 249.7 168.121 249.86 168.529 250.18C168.937 250.5 169.177 250.948 169.249 251.524H168.085C168.045 251.26 167.921 251.056 167.713 250.912C167.505 250.76 167.229 250.684 166.885 250.684C166.525 250.684 166.249 250.752 166.057 250.888C165.873 251.024 165.781 251.204 165.781 251.428C165.781 251.58 165.829 251.72 165.925 251.848C166.021 251.968 166.173 252.068 166.381 252.148C166.589 252.228 166.853 252.296 167.173 252.352C167.629 252.432 168.025 252.532 168.361 252.652C168.697 252.772 168.957 252.952 169.141 253.192C169.333 253.432 169.429 253.772 169.429 254.212C169.429 254.604 169.329 254.948 169.129 255.244C168.937 255.532 168.661 255.756 168.301 255.916C167.949 256.068 167.529 256.144 167.041 256.144ZM173.205 256.144C172.661 256.144 172.197 256.06 171.813 255.892C171.429 255.716 171.129 255.476 170.913 255.172C170.705 254.86 170.581 254.504 170.541 254.104H171.753C171.793 254.296 171.869 254.472 171.981 254.632C172.093 254.792 172.249 254.924 172.449 255.028C172.657 255.124 172.909 255.172 173.205 255.172C173.461 255.172 173.677 255.136 173.853 255.064C174.029 254.984 174.157 254.876 174.237 254.74C174.325 254.604 174.369 254.456 174.369 254.296C174.369 254.064 174.313 253.888 174.201 253.768C174.097 253.64 173.937 253.544 173.721 253.48C173.513 253.408 173.257 253.348 172.953 253.3C172.649 253.244 172.361 253.176 172.089 253.096C171.825 253.008 171.593 252.896 171.393 252.76C171.193 252.624 171.037 252.456 170.925 252.256C170.813 252.048 170.757 251.8 170.757 251.512C170.757 251.16 170.849 250.848 171.033 250.576C171.217 250.304 171.481 250.092 171.825 249.94C172.169 249.78 172.581 249.7 173.061 249.7C173.741 249.7 174.285 249.86 174.693 250.18C175.101 250.5 175.341 250.948 175.413 251.524H174.249C174.209 251.26 174.085 251.056 173.877 250.912C173.669 250.76 173.393 250.684 173.049 250.684C172.689 250.684 172.413 250.752 172.221 250.888C172.037 251.024 171.945 251.204 171.945 251.428C171.945 251.58 171.993 251.72 172.089 251.848C172.185 251.968 172.337 252.068 172.545 252.148C172.753 252.228 173.017 252.296 173.337 252.352C173.793 252.432 174.189 252.532 174.525 252.652C174.861 252.772 175.121 252.952 175.305 253.192C175.497 253.432 175.593 253.772 175.593 254.212C175.593 254.604 175.493 254.948 175.293 255.244C175.101 255.532 174.825 255.756 174.465 255.916C174.113 256.068 173.693 256.144 173.205 256.144ZM177.113 256V249.844H178.313V256H177.113ZM177.713 248.74C177.481 248.74 177.289 248.668 177.137 248.524C176.993 248.38 176.921 248.196 176.921 247.972C176.921 247.756 176.993 247.58 177.137 247.444C177.289 247.3 177.481 247.228 177.713 247.228C177.937 247.228 178.125 247.3 178.277 247.444C178.429 247.58 178.505 247.756 178.505 247.972C178.505 248.196 178.429 248.38 178.277 248.524C178.125 248.668 177.937 248.74 177.713 248.74ZM183.329 256.144C182.985 256.144 182.677 256.096 182.405 256C182.141 255.896 181.909 255.764 181.709 255.604C181.517 255.444 181.361 255.268 181.241 255.076L181.121 256H180.041V247.36H181.241V250.792C181.433 250.464 181.705 250.2 182.057 250C182.417 249.8 182.837 249.7 183.317 249.7C183.893 249.7 184.397 249.84 184.829 250.12C185.269 250.4 185.609 250.78 185.849 251.26C186.097 251.74 186.221 252.292 186.221 252.916C186.221 253.532 186.097 254.084 185.849 254.572C185.609 255.06 185.273 255.444 184.841 255.724C184.409 256.004 183.905 256.144 183.329 256.144ZM183.125 255.1C183.485 255.1 183.805 255.012 184.085 254.836C184.365 254.652 184.585 254.4 184.745 254.08C184.913 253.752 184.997 253.368 184.997 252.928C184.997 252.488 184.913 252.104 184.745 251.776C184.585 251.448 184.365 251.196 184.085 251.02C183.805 250.836 183.485 250.744 183.125 250.744C182.749 250.744 182.421 250.836 182.141 251.02C181.861 251.196 181.641 251.448 181.481 251.776C181.329 252.104 181.253 252.488 181.253 252.928C181.253 253.368 181.329 253.752 181.481 254.08C181.641 254.4 181.861 254.652 182.141 254.836C182.421 255.012 182.749 255.1 183.125 255.1ZM187.646 256V247.36H188.846V256H187.646ZM193.23 256.144C192.646 256.144 192.13 256.012 191.682 255.748C191.242 255.476 190.898 255.1 190.65 254.62C190.402 254.14 190.278 253.58 190.278 252.94C190.278 252.292 190.402 251.728 190.65 251.248C190.898 250.76 191.246 250.38 191.694 250.108C192.142 249.836 192.658 249.7 193.242 249.7C193.842 249.7 194.354 249.836 194.778 250.108C195.202 250.372 195.526 250.728 195.75 251.176C195.974 251.616 196.086 252.108 196.086 252.652C196.086 252.732 196.082 252.816 196.074 252.904C196.074 252.992 196.07 253.092 196.062 253.204H191.154V252.364H194.886C194.87 251.836 194.706 251.428 194.394 251.14C194.082 250.844 193.694 250.696 193.23 250.696C192.91 250.696 192.614 250.772 192.342 250.924C192.078 251.076 191.862 251.3 191.694 251.596C191.534 251.884 191.454 252.252 191.454 252.7V253.036C191.454 253.492 191.534 253.88 191.694 254.2C191.854 254.512 192.066 254.748 192.33 254.908C192.602 255.068 192.898 255.148 193.218 255.148C193.618 255.148 193.938 255.068 194.178 254.908C194.418 254.74 194.594 254.516 194.706 254.236H195.918C195.814 254.596 195.638 254.92 195.39 255.208C195.142 255.496 194.834 255.724 194.466 255.892C194.106 256.06 193.694 256.144 193.23 256.144Z" fill="#4D4D4D"/>
</svg>
