<svg width="197" height="48" viewBox="0 0 197 48" fill="none" xmlns="http://www.w3.org/2000/svg">
<path d="M43.0682 14.2319C44.1406 16.8084 44.7462 19.4477 44.9314 22.2015C45.2075 26.3073 44.6703 30.2776 42.9501 34.0227C39.7786 40.9274 34.6178 45.4657 27.0937 47.1232C25.8479 47.3977 24.5921 47.5916 23.3315 47.7711C22.8756 47.8361 22.5959 47.712 22.3304 47.2972C20.1706 43.9219 17.9813 40.5654 15.799 37.2045C15.7114 37.0696 15.6031 36.9482 15.5127 36.8313C15.2435 36.8598 15.1753 37.0612 15.0721 37.22C12.8178 40.69 10.5633 44.1599 8.31494 47.6339C8.16102 47.8717 8.00617 48.0015 7.69275 47.9994C5.33855 47.983 2.98405 47.9757 0.629993 47.9999C0.127359 48.005 -0.000581804 47.8486 1.9859e-06 47.3585C0.0134499 36.1157 0.013917 24.8728 0.00284306 13.63C0.00237012 13.1482 0.118031 12.9726 0.629718 12.9777C3.01648 13.0014 5.40363 12.9858 7.79064 12.9856C8.45429 12.9856 8.47257 13.0027 8.47285 13.6776C8.4755 20.2073 8.47658 26.737 8.48 33.2666C8.48009 33.4557 8.43693 33.6531 8.56086 33.8643C8.87243 33.5901 9.03824 33.2293 9.25027 32.9098C10.254 31.3969 11.2526 29.8805 12.2298 28.3504C12.4522 28.0021 12.709 27.8836 13.112 27.8887C14.6649 27.9083 16.2185 27.9088 17.7714 27.8871C18.1771 27.8814 18.4249 28.0089 18.6489 28.3526C20.9529 31.8884 23.2716 35.4144 25.589 38.9413C26.0947 39.7109 26.0961 39.6986 26.961 39.3487C31.1037 37.6727 33.7611 34.541 35.1908 30.4387C37.1184 24.9079 36.7237 19.4871 33.6676 14.3954C31.5107 10.8017 28.2937 8.67806 24.2163 7.80484C22.2733 7.38875 20.3157 7.21533 18.3298 7.22218C12.4604 7.24242 6.59094 7.23161 0.721518 7.2324C0.0126267 7.23249 0.0117614 7.23092 0.0115908 6.5328C0.0111088 4.55262 0.0223324 2.57234 0.0029688 0.592347C-0.00136013 0.149636 0.126186 -0.0010078 0.583201 5.06826e-06C7.10658 0.0145028 13.6302 -0.0208454 20.1533 0.0274393C23.7378 0.0539746 27.2394 0.656697 30.6127 1.92196C34.9129 3.53488 38.2243 6.37063 40.8002 10.1265C41.6816 11.4117 42.4385 12.7649 43.0682 14.2319Z" fill="#1E2440"/>
<path d="M54.1875 27V4.45312H61.7656C68.4375 4.45312 72.4062 8.60938 72.4062 15.6875V15.7188C72.4062 22.8281 68.4688 27 61.7656 27H54.1875ZM57 24.4688H61.5781C66.6875 24.4688 69.5312 21.3438 69.5312 15.75V15.7188C69.5312 10.0938 66.6875 6.98438 61.5781 6.98438H57V24.4688ZM77.0156 8C76.0781 8 75.3125 7.23438 75.3125 6.29688C75.3125 5.34375 76.0781 4.59375 77.0156 4.59375C77.9688 4.59375 78.7188 5.34375 78.7188 6.29688C78.7188 7.23438 77.9688 8 77.0156 8ZM75.6562 27V10.75H78.375V27H75.6562ZM88.9531 32.7812C84.9375 32.7812 82.4062 30.8906 81.875 28.4844L81.8438 28.3438H84.5781L84.6406 28.4844C85.1562 29.6562 86.7031 30.375 88.9219 30.375C91.7812 30.375 93.4062 28.7969 93.4062 26.2812V24.2031H93.3438C92.375 26 90.5 27.1562 88.1719 27.1562C84.0781 27.1562 81.2812 23.8594 81.2812 18.7812V18.7656C81.2812 13.7188 84.1094 10.4375 88.2344 10.4375C90.5312 10.4375 92.3438 11.6875 93.3438 13.5H93.4062V10.75H96.125V26.5469C96.125 30.3125 93.3594 32.7812 88.9531 32.7812ZM88.7656 24.75C91.5312 24.75 93.4062 22.3906 93.4062 18.7812V18.7656C93.4062 15.1875 91.5156 12.8438 88.7656 12.8438C85.875 12.8438 84.0625 15.1562 84.0625 18.7656V18.7812C84.0625 22.4688 85.875 24.75 88.7656 24.75ZM101.172 8C100.234 8 99.4688 7.23438 99.4688 6.29688C99.4688 5.34375 100.234 4.59375 101.172 4.59375C102.125 4.59375 102.875 5.34375 102.875 6.29688C102.875 7.23438 102.125 8 101.172 8ZM99.8125 27V10.75H102.531V27H99.8125ZM111.516 27.3125C108.531 27.3125 107.062 25.9688 107.062 22.8594V13H104.688V10.75H107.062V6.35938H109.875V10.75H112.969V13H109.875V22.8438C109.875 24.5781 110.641 25.0625 112.094 25.0625C112.422 25.0625 112.734 25.0156 112.969 25V27.2031C112.625 27.25 112.047 27.3125 111.516 27.3125ZM120.969 27L114.828 4.45312H117.766L122.312 22.9688H122.375L127.484 4.45312H130.328L135.438 22.9688H135.5L140.047 4.45312H142.984L136.844 27H134.188L128.938 8.9375H128.875L123.625 27H120.969ZM148.016 27.3125C144.781 27.3125 142.609 25.3594 142.609 22.4062V22.375C142.609 19.6094 144.766 17.875 148.5 17.6562L153.156 17.3906V16.0312C153.156 14.0469 151.859 12.8438 149.594 12.8438C147.5 12.8438 146.188 13.8438 145.875 15.2969L145.844 15.4375H143.219L143.234 15.2656C143.469 12.5938 145.797 10.4375 149.625 10.4375C153.469 10.4375 155.875 12.5156 155.875 15.7656V27H153.156V24.3594H153.094C152.141 26.1406 150.188 27.3125 148.016 27.3125ZM145.391 22.4062C145.391 23.9688 146.672 24.9531 148.625 24.9531C151.188 24.9531 153.156 23.1875 153.156 20.8281V19.5L148.812 19.7656C146.641 19.8906 145.391 20.8594 145.391 22.375V22.4062ZM159.469 27V4.45312H162.188V27H159.469ZM166 27V4.45312H168.719V27H166ZM179.078 27.3125C174.406 27.3125 171.594 24.0469 171.594 18.9375V18.9219C171.594 13.8906 174.469 10.4375 178.906 10.4375C183.344 10.4375 186.047 13.7344 186.047 18.6094V19.6094H174.344C174.406 22.9531 176.25 24.9062 179.141 24.9062C181.203 24.9062 182.656 23.875 183.125 22.4844L183.172 22.3438H185.844L185.812 22.5C185.281 25.1875 182.625 27.3125 179.078 27.3125ZM178.891 12.8438C176.531 12.8438 174.688 14.4531 174.391 17.4844H183.281C183.016 14.3281 181.266 12.8438 178.891 12.8438ZM194.078 27.3125C191.094 27.3125 189.625 25.9688 189.625 22.8594V13H187.25V10.75H189.625V6.35938H192.438V10.75H195.531V13H192.438V22.8438C192.438 24.5781 193.203 25.0625 194.656 25.0625C194.984 25.0625 195.297 25.0156 195.531 25V27.2031C195.188 27.25 194.609 27.3125 194.078 27.3125Z" fill="#1E2440"/>
<path d="M54.8203 44V35.5449H57.832C59.4199 35.5449 60.5449 36.6406 60.5449 38.2461V38.2578C60.5449 39.8633 59.4199 40.9824 57.832 40.9824H55.875V44H54.8203ZM57.5625 36.4824H55.875V40.0449H57.5625C58.7695 40.0449 59.4668 39.3828 59.4668 38.2695V38.2578C59.4668 37.1445 58.7695 36.4824 57.5625 36.4824ZM63.832 44.1172C62.1387 44.1172 61.0078 42.8926 61.0078 40.9531V40.9414C61.0078 39.002 62.1445 37.7891 63.8262 37.7891C65.5078 37.7891 66.6504 38.9961 66.6504 40.9414V40.9531C66.6504 42.8984 65.5137 44.1172 63.832 44.1172ZM63.8379 43.2148C64.9102 43.2148 65.6074 42.3828 65.6074 40.9531V40.9414C65.6074 39.5117 64.9043 38.6914 63.8262 38.6914C62.7656 38.6914 62.0508 39.5176 62.0508 40.9414V40.9531C62.0508 42.3887 62.7598 43.2148 63.8379 43.2148ZM68.8887 44L67.1836 37.9062H68.1973L69.416 42.8633H69.4395L70.8164 37.9062H71.8008L73.1836 42.8633H73.207L74.4258 37.9062H75.4336L73.7344 44H72.6973L71.3203 39.2832H71.2969L69.9258 44H68.8887ZM78.7793 44.1172C77.0273 44.1172 75.9727 42.8926 75.9727 40.9766V40.9707C75.9727 39.084 77.0508 37.7891 78.7148 37.7891C80.3789 37.7891 81.3926 39.0254 81.3926 40.8535V41.2285H77.0039C77.0273 42.4824 77.7188 43.2148 78.8027 43.2148C79.5762 43.2148 80.1211 42.8281 80.2969 42.3066L80.3145 42.2539H81.3164L81.3047 42.3125C81.1055 43.3203 80.1094 44.1172 78.7793 44.1172ZM78.709 38.6914C77.8242 38.6914 77.1328 39.2949 77.0215 40.4316H80.3555C80.2559 39.248 79.5996 38.6914 78.709 38.6914ZM82.4238 44V37.9062H83.4434V38.9375H83.4668C83.6719 38.2344 84.1992 37.7891 84.8848 37.7891C85.0605 37.7891 85.2129 37.8184 85.2949 37.8301V38.8203C85.2129 38.791 84.9961 38.7617 84.75 38.7617C83.959 38.7617 83.4434 39.3125 83.4434 40.2383V44H82.4238ZM86.7012 36.875C86.3496 36.875 86.0625 36.5879 86.0625 36.2363C86.0625 35.8789 86.3496 35.5977 86.7012 35.5977C87.0586 35.5977 87.3398 35.8789 87.3398 36.2363C87.3398 36.5879 87.0586 36.875 86.7012 36.875ZM86.1914 44V37.9062H87.2109V44H86.1914ZM88.5996 44V37.9062H89.6191V38.7734H89.6426C89.9707 38.2051 90.5918 37.7891 91.5176 37.7891C92.8535 37.7891 93.627 38.6562 93.627 40.0449V44H92.6074V40.2266C92.6074 39.2363 92.1445 38.6914 91.207 38.6914C90.2461 38.6914 89.6191 39.377 89.6191 40.4141V44H88.5996ZM97.5059 46.168C96 46.168 95.0508 45.459 94.8516 44.5566L94.8398 44.5039H95.8652L95.8887 44.5566C96.082 44.9961 96.6621 45.2656 97.4941 45.2656C98.5664 45.2656 99.1758 44.6738 99.1758 43.7305V42.9512H99.1523C98.7891 43.625 98.0859 44.0586 97.2129 44.0586C95.6777 44.0586 94.6289 42.8223 94.6289 40.918V40.9121C94.6289 39.0195 95.6895 37.7891 97.2363 37.7891C98.0977 37.7891 98.7773 38.2578 99.1523 38.9375H99.1758V37.9062H100.195V43.8301C100.195 45.2422 99.1582 46.168 97.5059 46.168ZM97.4355 43.1562C98.4727 43.1562 99.1758 42.2715 99.1758 40.918V40.9121C99.1758 39.5703 98.4668 38.6914 97.4355 38.6914C96.3516 38.6914 95.6719 39.5586 95.6719 40.9121V40.918C95.6719 42.3008 96.3516 43.1562 97.4355 43.1562ZM104.133 44V35.5449H109.266V36.4941H105.188V39.4004H108.932V40.3379H105.188V44H104.133ZM110.889 36.875C110.537 36.875 110.25 36.5879 110.25 36.2363C110.25 35.8789 110.537 35.5977 110.889 35.5977C111.246 35.5977 111.527 35.8789 111.527 36.2363C111.527 36.5879 111.246 36.875 110.889 36.875ZM110.379 44V37.9062H111.398V44H110.379ZM112.787 44V37.9062H113.807V38.7734H113.83C114.158 38.2051 114.779 37.7891 115.705 37.7891C117.041 37.7891 117.814 38.6562 117.814 40.0449V44H116.795V40.2266C116.795 39.2363 116.332 38.6914 115.395 38.6914C114.434 38.6914 113.807 39.377 113.807 40.4141V44H112.787ZM120.896 44.1172C119.684 44.1172 118.869 43.3848 118.869 42.2773V42.2656C118.869 41.2285 119.678 40.5781 121.078 40.4961L122.824 40.3965V39.8867C122.824 39.1426 122.338 38.6914 121.488 38.6914C120.703 38.6914 120.211 39.0664 120.094 39.6113L120.082 39.6641H119.098L119.104 39.5996C119.191 38.5977 120.064 37.7891 121.5 37.7891C122.941 37.7891 123.844 38.5684 123.844 39.7871V44H122.824V43.0098H122.801C122.443 43.6777 121.711 44.1172 120.896 44.1172ZM119.912 42.2773C119.912 42.8633 120.393 43.2324 121.125 43.2324C122.086 43.2324 122.824 42.5703 122.824 41.6855V41.1875L121.195 41.2871C120.381 41.334 119.912 41.6973 119.912 42.2656V42.2773ZM125.139 44V37.9062H126.158V38.7734H126.182C126.51 38.2051 127.131 37.7891 128.057 37.7891C129.393 37.7891 130.166 38.6562 130.166 40.0449V44H129.146V40.2266C129.146 39.2363 128.684 38.6914 127.746 38.6914C126.785 38.6914 126.158 39.377 126.158 40.4141V44H125.139ZM133.992 44.1172C132.264 44.1172 131.168 42.8867 131.168 40.9473V40.9414C131.168 39.0195 132.287 37.7891 133.98 37.7891C135.498 37.7891 136.395 38.7969 136.523 39.8398L136.529 39.8867H135.533L135.521 39.8398C135.369 39.2305 134.877 38.6914 133.98 38.6914C132.92 38.6914 132.211 39.5703 132.211 40.9531V40.959C132.211 42.377 132.938 43.2148 133.992 43.2148C134.824 43.2148 135.357 42.7461 135.527 42.0664L135.539 42.0195H136.541L136.535 42.0605C136.371 43.2207 135.369 44.1172 133.992 44.1172ZM138.053 36.875C137.701 36.875 137.414 36.5879 137.414 36.2363C137.414 35.8789 137.701 35.5977 138.053 35.5977C138.41 35.5977 138.691 35.8789 138.691 36.2363C138.691 36.5879 138.41 36.875 138.053 36.875ZM137.543 44V37.9062H138.562V44H137.543ZM141.732 44.1172C140.52 44.1172 139.705 43.3848 139.705 42.2773V42.2656C139.705 41.2285 140.514 40.5781 141.914 40.4961L143.66 40.3965V39.8867C143.66 39.1426 143.174 38.6914 142.324 38.6914C141.539 38.6914 141.047 39.0664 140.93 39.6113L140.918 39.6641H139.934L139.939 39.5996C140.027 38.5977 140.9 37.7891 142.336 37.7891C143.777 37.7891 144.68 38.5684 144.68 39.7871V44H143.66V43.0098H143.637C143.279 43.6777 142.547 44.1172 141.732 44.1172ZM140.748 42.2773C140.748 42.8633 141.229 43.2324 141.961 43.2324C142.922 43.2324 143.66 42.5703 143.66 41.6855V41.1875L142.031 41.2871C141.217 41.334 140.748 41.6973 140.748 42.2656V42.2773ZM146.027 44V35.5449H147.047V44H146.027ZM151.043 44V35.5449H156.176V36.4941H152.098V39.4004H155.842V40.3379H152.098V44H151.043ZM157.225 44V37.9062H158.244V38.9375H158.268C158.473 38.2344 159 37.7891 159.686 37.7891C159.861 37.7891 160.014 37.8184 160.096 37.8301V38.8203C160.014 38.791 159.797 38.7617 159.551 38.7617C158.76 38.7617 158.244 39.3125 158.244 40.2383V44H157.225ZM163.143 44.1172C161.391 44.1172 160.336 42.8926 160.336 40.9766V40.9707C160.336 39.084 161.414 37.7891 163.078 37.7891C164.742 37.7891 165.756 39.0254 165.756 40.8535V41.2285H161.367C161.391 42.4824 162.082 43.2148 163.166 43.2148C163.939 43.2148 164.484 42.8281 164.66 42.3066L164.678 42.2539H165.68L165.668 42.3125C165.469 43.3203 164.473 44.1172 163.143 44.1172ZM163.072 38.6914C162.188 38.6914 161.496 39.2949 161.385 40.4316H164.719C164.619 39.248 163.963 38.6914 163.072 38.6914ZM169.295 44.1172C167.543 44.1172 166.488 42.8926 166.488 40.9766V40.9707C166.488 39.084 167.566 37.7891 169.23 37.7891C170.895 37.7891 171.908 39.0254 171.908 40.8535V41.2285H167.52C167.543 42.4824 168.234 43.2148 169.318 43.2148C170.092 43.2148 170.637 42.8281 170.812 42.3066L170.83 42.2539H171.832L171.82 42.3125C171.621 43.3203 170.625 44.1172 169.295 44.1172ZM169.225 38.6914C168.34 38.6914 167.648 39.2949 167.537 40.4316H170.871C170.771 39.248 170.115 38.6914 169.225 38.6914ZM175.23 44.1172C173.672 44.1172 172.641 42.875 172.641 40.9531V40.9473C172.641 39.0254 173.684 37.7891 175.213 37.7891C176.074 37.7891 176.783 38.2227 177.164 38.9258H177.188V35.5449H178.207V44H177.188V42.9688H177.164C176.783 43.6777 176.104 44.1172 175.23 44.1172ZM175.43 43.2148C176.461 43.2148 177.193 42.3184 177.193 40.9531V40.9473C177.193 39.5879 176.455 38.6914 175.43 38.6914C174.352 38.6914 173.684 39.5586 173.684 40.9473V40.9531C173.684 42.3535 174.352 43.2148 175.43 43.2148ZM182.109 44.1172C180.416 44.1172 179.285 42.8926 179.285 40.9531V40.9414C179.285 39.002 180.422 37.7891 182.104 37.7891C183.785 37.7891 184.928 38.9961 184.928 40.9414V40.9531C184.928 42.8984 183.791 44.1172 182.109 44.1172ZM182.115 43.2148C183.188 43.2148 183.885 42.3828 183.885 40.9531V40.9414C183.885 39.5117 183.182 38.6914 182.104 38.6914C181.043 38.6914 180.328 39.5176 180.328 40.9414V40.9531C180.328 42.3887 181.037 43.2148 182.115 43.2148ZM185.959 44V37.9062H186.979V38.7969H187.002C187.277 38.1934 187.887 37.7891 188.672 37.7891C189.504 37.7891 190.119 38.2168 190.383 38.9609H190.406C190.746 38.2285 191.461 37.7891 192.316 37.7891C193.523 37.7891 194.303 38.5801 194.303 39.793V44H193.283V40.0273C193.283 39.1895 192.82 38.6914 192.018 38.6914C191.209 38.6914 190.641 39.2949 190.641 40.127V44H189.621V39.916C189.621 39.1777 189.129 38.6914 188.373 38.6914C187.564 38.6914 186.979 39.3301 186.979 40.1797V44H185.959Z" fill="#1E2440"/>
</svg>
