<svg width="131" height="32" viewBox="0 0 131 32" fill="none" xmlns="http://www.w3.org/2000/svg">
<path d="M28.7121 9.48794C29.4271 11.2056 29.8308 12.9651 29.9543 14.801C30.1384 17.5382 29.7802 20.1851 28.6334 22.6818C26.519 27.285 23.0785 30.3105 18.0624 31.4155C17.2319 31.5985 16.3947 31.7277 15.5543 31.8474C15.2504 31.8907 15.0639 31.808 14.8869 31.5315C13.447 29.2812 11.9876 27.0436 10.5327 24.803C10.4743 24.7131 10.4021 24.6322 10.3418 24.5542C10.1624 24.5732 10.1168 24.7075 10.0481 24.8133C8.5452 27.1267 7.04219 29.44 5.5433 31.7559C5.44068 31.9145 5.33745 32.001 5.1285 31.9996C3.55903 31.9887 1.98936 31.9838 0.419995 31.9999C0.0849063 32.0034 -0.000387869 31.899 1.32394e-06 31.5723C0.00896663 24.0771 0.00927801 16.5819 0.00189537 9.08667C0.00158008 8.76547 0.0786873 8.64841 0.419812 8.6518C2.01099 8.66759 3.60242 8.65718 5.19376 8.65708C5.63619 8.65705 5.64838 8.66846 5.64856 9.11842C5.65033 13.4715 5.65105 17.8246 5.65333 22.1777C5.6534 22.3038 5.62462 22.4354 5.70724 22.5762C5.91495 22.3934 6.02549 22.1529 6.16684 21.9398C6.83598 20.9313 7.50171 19.9203 8.15318 18.9003C8.30149 18.6681 8.47266 18.589 8.74134 18.5924C9.77663 18.6055 10.8123 18.6059 11.8476 18.5914C12.1181 18.5876 12.2832 18.6726 12.4326 18.9018C13.9686 21.2589 15.5144 23.6096 17.0594 25.9609C17.3965 26.4739 17.3974 26.4657 17.974 26.2325C20.7358 25.1151 22.5074 23.0274 23.4606 20.2925C24.7456 16.6052 24.4825 12.9914 22.4451 9.59692C21.0071 7.20116 18.8625 5.78537 16.1442 5.20323C14.8489 4.92583 13.5438 4.81022 12.2198 4.81479C8.30693 4.82828 4.39396 4.82107 0.481012 4.8216C0.00841779 4.82166 0.00784094 4.82061 0.00772721 4.3552C0.00740584 3.03508 0.0148883 1.71489 0.0019792 0.394898C-0.000906755 0.0997574 0.0841239 -0.000671867 0.388801 3.37884e-06C4.73772 0.00966853 9.08682 -0.013897 13.4355 0.0182928C15.8252 0.035983 18.1596 0.437798 20.4085 1.28131C23.2752 2.35659 25.4829 4.24709 27.2001 6.75098C27.7877 7.60782 28.2923 8.50996 28.7121 9.48794Z" fill="#B4EAFF"/>
<path d="M37.4355 18V3.20361H42.4087C46.7871 3.20361 49.3916 5.93115 49.3916 10.5762V10.5967C49.3916 15.2622 46.8076 18 42.4087 18H37.4355ZM39.2812 16.3389H42.2856C45.6387 16.3389 47.5049 14.2881 47.5049 10.6172V10.5967C47.5049 6.90527 45.6387 4.86475 42.2856 4.86475H39.2812V16.3389ZM52.4165 5.53125C51.8013 5.53125 51.2988 5.02881 51.2988 4.41357C51.2988 3.78809 51.8013 3.2959 52.4165 3.2959C53.042 3.2959 53.5342 3.78809 53.5342 4.41357C53.5342 5.02881 53.042 5.53125 52.4165 5.53125ZM51.5244 18V7.33594H53.3086V18H51.5244ZM60.2505 21.7939C57.6152 21.7939 55.9541 20.5532 55.6055 18.9741L55.585 18.8818H57.3794L57.4204 18.9741C57.7588 19.7432 58.7739 20.2148 60.23 20.2148C62.1064 20.2148 63.1729 19.1792 63.1729 17.5283V16.1646H63.1318C62.4961 17.3438 61.2656 18.1025 59.7378 18.1025C57.0513 18.1025 55.2158 15.939 55.2158 12.6064V12.5962C55.2158 9.28418 57.0718 7.13086 59.7788 7.13086C61.2861 7.13086 62.4756 7.95117 63.1318 9.14062H63.1729V7.33594H64.957V17.7026C64.957 20.1738 63.1421 21.7939 60.2505 21.7939ZM60.1274 16.5234C61.9424 16.5234 63.1729 14.9751 63.1729 12.6064V12.5962C63.1729 10.248 61.9321 8.70996 60.1274 8.70996C58.2305 8.70996 57.041 10.2275 57.041 12.5962V12.6064C57.041 15.0264 58.2305 16.5234 60.1274 16.5234ZM68.269 5.53125C67.6538 5.53125 67.1514 5.02881 67.1514 4.41357C67.1514 3.78809 67.6538 3.2959 68.269 3.2959C68.8945 3.2959 69.3867 3.78809 69.3867 4.41357C69.3867 5.02881 68.8945 5.53125 68.269 5.53125ZM67.377 18V7.33594H69.1611V18H67.377ZM75.0571 18.2051C73.0986 18.2051 72.1348 17.3232 72.1348 15.2827V8.8125H70.5762V7.33594H72.1348V4.45459H73.9805V7.33594H76.0107V8.8125H73.9805V15.2725C73.9805 16.4106 74.4829 16.7285 75.4365 16.7285C75.6519 16.7285 75.8569 16.6978 76.0107 16.6875V18.1333C75.7852 18.1641 75.4058 18.2051 75.0571 18.2051ZM81.2607 18L77.231 3.20361H79.1587L82.1426 15.3545H82.1836L85.5366 3.20361H87.4028L90.7559 15.3545H90.7969L93.7808 3.20361H95.7085L91.6787 18H89.9355L86.4902 6.14648H86.4492L83.0039 18H81.2607ZM99.0103 18.2051C96.8877 18.2051 95.4624 16.9233 95.4624 14.9854V14.9648C95.4624 13.1499 96.8774 12.0117 99.3281 11.8682L102.384 11.6938V10.8018C102.384 9.49951 101.533 8.70996 100.046 8.70996C98.6719 8.70996 97.8105 9.36621 97.6055 10.3198L97.585 10.4121H95.8623L95.8726 10.2993C96.0264 8.5459 97.5542 7.13086 100.066 7.13086C102.589 7.13086 104.168 8.49463 104.168 10.6274V18H102.384V16.2671H102.343C101.717 17.436 100.436 18.2051 99.0103 18.2051ZM97.2876 14.9854C97.2876 16.0107 98.1284 16.6567 99.4102 16.6567C101.092 16.6567 102.384 15.498 102.384 13.9497V13.0781L99.5332 13.2524C98.1079 13.3345 97.2876 13.9702 97.2876 14.9648V14.9854ZM106.526 18V3.20361H108.311V18H106.526ZM110.812 18V3.20361H112.597V18H110.812ZM119.395 18.2051C116.329 18.2051 114.483 16.062 114.483 12.709V12.6987C114.483 9.39697 116.37 7.13086 119.282 7.13086C122.194 7.13086 123.968 9.29443 123.968 12.4937V13.1499H116.288C116.329 15.3442 117.539 16.626 119.436 16.626C120.79 16.626 121.743 15.9492 122.051 15.0366L122.082 14.9443H123.835L123.814 15.0469C123.466 16.8105 121.723 18.2051 119.395 18.2051ZM119.272 8.70996C117.724 8.70996 116.514 9.76611 116.319 11.7554H122.153C121.979 9.68408 120.831 8.70996 119.272 8.70996ZM129.239 18.2051C127.28 18.2051 126.316 17.3232 126.316 15.2827V8.8125H124.758V7.33594H126.316V4.45459H128.162V7.33594H130.192V8.8125H128.162V15.2725C128.162 16.4106 128.665 16.7285 129.618 16.7285C129.833 16.7285 130.039 16.6978 130.192 16.6875V18.1333C129.967 18.1641 129.587 18.2051 129.239 18.2051Z" fill="#B4EAFF"/>
<path d="M37.0469 29V23.3633H39.0547C40.1133 23.3633 40.8633 24.0938 40.8633 25.1641V25.1719C40.8633 26.2422 40.1133 26.9883 39.0547 26.9883H37.75V29H37.0469ZM38.875 23.9883H37.75V26.3633H38.875C39.6797 26.3633 40.1445 25.9219 40.1445 25.1797V25.1719C40.1445 24.4297 39.6797 23.9883 38.875 23.9883ZM43.0547 29.0781C41.9258 29.0781 41.1719 28.2617 41.1719 26.9688V26.9609C41.1719 25.668 41.9297 24.8594 43.0508 24.8594C44.1719 24.8594 44.9336 25.6641 44.9336 26.9609V26.9688C44.9336 28.2656 44.1758 29.0781 43.0547 29.0781ZM43.0586 28.4766C43.7734 28.4766 44.2383 27.9219 44.2383 26.9688V26.9609C44.2383 26.0078 43.7695 25.4609 43.0508 25.4609C42.3438 25.4609 41.8672 26.0117 41.8672 26.9609V26.9688C41.8672 27.9258 42.3398 28.4766 43.0586 28.4766ZM46.4258 29L45.2891 24.9375H45.9648L46.7773 28.2422H46.793L47.7109 24.9375H48.3672L49.2891 28.2422H49.3047L50.1172 24.9375H50.7891L49.6562 29H48.9648L48.0469 25.8555H48.0312L47.1172 29H46.4258ZM53.0195 29.0781C51.8516 29.0781 51.1484 28.2617 51.1484 26.9844V26.9805C51.1484 25.7227 51.8672 24.8594 52.9766 24.8594C54.0859 24.8594 54.7617 25.6836 54.7617 26.9023V27.1523H51.8359C51.8516 27.9883 52.3125 28.4766 53.0352 28.4766C53.5508 28.4766 53.9141 28.2188 54.0312 27.8711L54.043 27.8359H54.7109L54.7031 27.875C54.5703 28.5469 53.9062 29.0781 53.0195 29.0781ZM52.9727 25.4609C52.3828 25.4609 51.9219 25.8633 51.8477 26.6211H54.0703C54.0039 25.832 53.5664 25.4609 52.9727 25.4609ZM55.4492 29V24.9375H56.1289V25.625H56.1445C56.2812 25.1562 56.6328 24.8594 57.0898 24.8594C57.207 24.8594 57.3086 24.8789 57.3633 24.8867V25.5469C57.3086 25.5273 57.1641 25.5078 57 25.5078C56.4727 25.5078 56.1289 25.875 56.1289 26.4922V29H55.4492ZM58.3008 24.25C58.0664 24.25 57.875 24.0586 57.875 23.8242C57.875 23.5859 58.0664 23.3984 58.3008 23.3984C58.5391 23.3984 58.7266 23.5859 58.7266 23.8242C58.7266 24.0586 58.5391 24.25 58.3008 24.25ZM57.9609 29V24.9375H58.6406V29H57.9609ZM59.5664 29V24.9375H60.2461V25.5156H60.2617C60.4805 25.1367 60.8945 24.8594 61.5117 24.8594C62.4023 24.8594 62.918 25.4375 62.918 26.3633V29H62.2383V26.4844C62.2383 25.8242 61.9297 25.4609 61.3047 25.4609C60.6641 25.4609 60.2461 25.918 60.2461 26.6094V29H59.5664ZM65.5039 30.4453C64.5 30.4453 63.8672 29.9727 63.7344 29.3711L63.7266 29.3359H64.4102L64.4258 29.3711C64.5547 29.6641 64.9414 29.8438 65.4961 29.8438C66.2109 29.8438 66.6172 29.4492 66.6172 28.8203V28.3008H66.6016C66.3594 28.75 65.8906 29.0391 65.3086 29.0391C64.2852 29.0391 63.5859 28.2148 63.5859 26.9453V26.9414C63.5859 25.6797 64.293 24.8594 65.3242 24.8594C65.8984 24.8594 66.3516 25.1719 66.6016 25.625H66.6172V24.9375H67.2969V28.8867C67.2969 29.8281 66.6055 30.4453 65.5039 30.4453ZM65.457 28.4375C66.1484 28.4375 66.6172 27.8477 66.6172 26.9453V26.9414C66.6172 26.0469 66.1445 25.4609 65.457 25.4609C64.7344 25.4609 64.2812 26.0391 64.2812 26.9414V26.9453C64.2812 27.8672 64.7344 28.4375 65.457 28.4375ZM69.9219 29V23.3633H73.3438V23.9961H70.625V25.9336H73.1211V26.5586H70.625V29H69.9219ZM74.4258 24.25C74.1914 24.25 74 24.0586 74 23.8242C74 23.5859 74.1914 23.3984 74.4258 23.3984C74.6641 23.3984 74.8516 23.5859 74.8516 23.8242C74.8516 24.0586 74.6641 24.25 74.4258 24.25ZM74.0859 29V24.9375H74.7656V29H74.0859ZM75.6914 29V24.9375H76.3711V25.5156H76.3867C76.6055 25.1367 77.0195 24.8594 77.6367 24.8594C78.5273 24.8594 79.043 25.4375 79.043 26.3633V29H78.3633V26.4844C78.3633 25.8242 78.0547 25.4609 77.4297 25.4609C76.7891 25.4609 76.3711 25.918 76.3711 26.6094V29H75.6914ZM81.0977 29.0781C80.2891 29.0781 79.7461 28.5898 79.7461 27.8516V27.8438C79.7461 27.1523 80.2852 26.7188 81.2188 26.6641L82.3828 26.5977V26.2578C82.3828 25.7617 82.0586 25.4609 81.4922 25.4609C80.9688 25.4609 80.6406 25.7109 80.5625 26.0742L80.5547 26.1094H79.8984L79.9023 26.0664C79.9609 25.3984 80.543 24.8594 81.5 24.8594C82.4609 24.8594 83.0625 25.3789 83.0625 26.1914V29H82.3828V28.3398H82.3672C82.1289 28.7852 81.6406 29.0781 81.0977 29.0781ZM80.4414 27.8516C80.4414 28.2422 80.7617 28.4883 81.25 28.4883C81.8906 28.4883 82.3828 28.0469 82.3828 27.457V27.125L81.2969 27.1914C80.7539 27.2227 80.4414 27.4648 80.4414 27.8438V27.8516ZM83.9258 29V24.9375H84.6055V25.5156H84.6211C84.8398 25.1367 85.2539 24.8594 85.8711 24.8594C86.7617 24.8594 87.2773 25.4375 87.2773 26.3633V29H86.5977V26.4844C86.5977 25.8242 86.2891 25.4609 85.6641 25.4609C85.0234 25.4609 84.6055 25.918 84.6055 26.6094V29H83.9258ZM89.8281 29.0781C88.6758 29.0781 87.9453 28.2578 87.9453 26.9648V26.9609C87.9453 25.6797 88.6914 24.8594 89.8203 24.8594C90.832 24.8594 91.4297 25.5312 91.5156 26.2266L91.5195 26.2578H90.8555L90.8477 26.2266C90.7461 25.8203 90.418 25.4609 89.8203 25.4609C89.1133 25.4609 88.6406 26.0469 88.6406 26.9688V26.9727C88.6406 27.918 89.125 28.4766 89.8281 28.4766C90.3828 28.4766 90.7383 28.1641 90.8516 27.7109L90.8594 27.6797H91.5273L91.5234 27.707C91.4141 28.4805 90.7461 29.0781 89.8281 29.0781ZM92.5352 24.25C92.3008 24.25 92.1094 24.0586 92.1094 23.8242C92.1094 23.5859 92.3008 23.3984 92.5352 23.3984C92.7734 23.3984 92.9609 23.5859 92.9609 23.8242C92.9609 24.0586 92.7734 24.25 92.5352 24.25ZM92.1953 29V24.9375H92.875V29H92.1953ZM94.9883 29.0781C94.1797 29.0781 93.6367 28.5898 93.6367 27.8516V27.8438C93.6367 27.1523 94.1758 26.7188 95.1094 26.6641L96.2734 26.5977V26.2578C96.2734 25.7617 95.9492 25.4609 95.3828 25.4609C94.8594 25.4609 94.5312 25.7109 94.4531 26.0742L94.4453 26.1094H93.7891L93.793 26.0664C93.8516 25.3984 94.4336 24.8594 95.3906 24.8594C96.3516 24.8594 96.9531 25.3789 96.9531 26.1914V29H96.2734V28.3398H96.2578C96.0195 28.7852 95.5312 29.0781 94.9883 29.0781ZM94.332 27.8516C94.332 28.2422 94.6523 28.4883 95.1406 28.4883C95.7812 28.4883 96.2734 28.0469 96.2734 27.457V27.125L95.1875 27.1914C94.6445 27.2227 94.332 27.4648 94.332 27.8438V27.8516ZM97.8516 29V23.3633H98.5312V29H97.8516ZM101.195 29V23.3633H104.617V23.9961H101.898V25.9336H104.395V26.5586H101.898V29H101.195ZM105.316 29V24.9375H105.996V25.625H106.012C106.148 25.1562 106.5 24.8594 106.957 24.8594C107.074 24.8594 107.176 24.8789 107.23 24.8867V25.5469C107.176 25.5273 107.031 25.5078 106.867 25.5078C106.34 25.5078 105.996 25.875 105.996 26.4922V29H105.316ZM109.262 29.0781C108.094 29.0781 107.391 28.2617 107.391 26.9844V26.9805C107.391 25.7227 108.109 24.8594 109.219 24.8594C110.328 24.8594 111.004 25.6836 111.004 26.9023V27.1523H108.078C108.094 27.9883 108.555 28.4766 109.277 28.4766C109.793 28.4766 110.156 28.2188 110.273 27.8711L110.285 27.8359H110.953L110.945 27.875C110.812 28.5469 110.148 29.0781 109.262 29.0781ZM109.215 25.4609C108.625 25.4609 108.164 25.8633 108.09 26.6211H110.312C110.246 25.832 109.809 25.4609 109.215 25.4609ZM113.363 29.0781C112.195 29.0781 111.492 28.2617 111.492 26.9844V26.9805C111.492 25.7227 112.211 24.8594 113.32 24.8594C114.43 24.8594 115.105 25.6836 115.105 26.9023V27.1523H112.18C112.195 27.9883 112.656 28.4766 113.379 28.4766C113.895 28.4766 114.258 28.2188 114.375 27.8711L114.387 27.8359H115.055L115.047 27.875C114.914 28.5469 114.25 29.0781 113.363 29.0781ZM113.316 25.4609C112.727 25.4609 112.266 25.8633 112.191 26.6211H114.414C114.348 25.832 113.91 25.4609 113.316 25.4609ZM117.32 29.0781C116.281 29.0781 115.594 28.25 115.594 26.9688V26.9648C115.594 25.6836 116.289 24.8594 117.309 24.8594C117.883 24.8594 118.355 25.1484 118.609 25.6172H118.625V23.3633H119.305V29H118.625V28.3125H118.609C118.355 28.7852 117.902 29.0781 117.32 29.0781ZM117.453 28.4766C118.141 28.4766 118.629 27.8789 118.629 26.9688V26.9648C118.629 26.0586 118.137 25.4609 117.453 25.4609C116.734 25.4609 116.289 26.0391 116.289 26.9648V26.9688C116.289 27.9023 116.734 28.4766 117.453 28.4766ZM121.906 29.0781C120.777 29.0781 120.023 28.2617 120.023 26.9688V26.9609C120.023 25.668 120.781 24.8594 121.902 24.8594C123.023 24.8594 123.785 25.6641 123.785 26.9609V26.9688C123.785 28.2656 123.027 29.0781 121.906 29.0781ZM121.91 28.4766C122.625 28.4766 123.09 27.9219 123.09 26.9688V26.9609C123.09 26.0078 122.621 25.4609 121.902 25.4609C121.195 25.4609 120.719 26.0117 120.719 26.9609V26.9688C120.719 27.9258 121.191 28.4766 121.91 28.4766ZM124.473 29V24.9375H125.152V25.5312H125.168C125.352 25.1289 125.758 24.8594 126.281 24.8594C126.836 24.8594 127.246 25.1445 127.422 25.6406H127.438C127.664 25.1523 128.141 24.8594 128.711 24.8594C129.516 24.8594 130.035 25.3867 130.035 26.1953V29H129.355V26.3516C129.355 25.793 129.047 25.4609 128.512 25.4609C127.973 25.4609 127.594 25.8633 127.594 26.418V29H126.914V26.2773C126.914 25.7852 126.586 25.4609 126.082 25.4609C125.543 25.4609 125.152 25.8867 125.152 26.4531V29H124.473Z" fill="#B4EAFF"/>
</svg>
