<svg width="126" height="32" viewBox="0 0 126 32" fill="none" xmlns="http://www.w3.org/2000/svg">
<path fill-rule="evenodd" clip-rule="evenodd" d="M125.044 6.56171C124.999 6.51487 124.945 6.47758 124.886 6.45211C124.826 6.42663 124.762 6.4135 124.698 6.4135C124.633 6.4135 124.569 6.42663 124.509 6.45211C124.45 6.47758 124.396 6.51487 124.351 6.56171C123.824 6.97457 123.328 7.42351 122.866 7.90853C122.048 8.72669 121.293 9.5952 120.462 10.4259C120.506 10.3294 120.514 10.2202 120.484 10.1185C120.453 10.0167 120.388 9.92926 120.298 9.87212C119.593 9.24276 118.926 8.61341 118.196 7.99664L117.252 7.254C116.929 7.01392 116.593 6.79123 116.247 6.58688C115.542 6.15892 114.812 5.80648 114.094 5.42887C114.635 3.79255 115.24 2.17007 115.819 0.609271C115.861 0.500533 115.86 0.379644 115.815 0.271784C115.771 0.163924 115.686 0.0774105 115.579 0.030264C115.472 -0.0115686 115.353 -0.00997921 115.248 0.0346934C115.142 0.079366 115.058 0.16359 115.013 0.269419C114.258 1.88057 113.477 3.52948 112.773 5.21615C112.282 6.34899 111.841 7.49441 111.514 8.63858C111.478 8.82869 111.504 9.02532 111.587 9.19972C111.671 9.37411 111.809 9.51711 111.98 9.60779L112.445 9.87212L114.145 10.7532L117.304 12.6287C117.304 13.472 117.14 14.693 116.989 15.9253C116.876 16.8945 116.725 17.8385 116.586 18.5434C116.586 18.921 116.586 19.4119 116.398 19.3489C116.098 19.5651 115.772 19.7427 115.428 19.8776C114.812 20.1419 114.031 20.3559 113.251 20.6706C111.442 21.3856 109.546 21.8592 107.613 22.0791C107.374 20.3169 106.795 16.0625 106.807 15.4834C106.775 15.0261 106.836 14.567 106.988 14.1343C107.139 13.7015 107.378 13.3044 107.689 12.9673C108.874 11.8747 110.259 11.0201 111.767 10.4499C111.821 10.4278 111.87 10.3953 111.911 10.3542C111.952 10.313 111.985 10.2641 112.007 10.2103C112.029 10.1564 112.041 10.0987 112.041 10.0404C112.04 9.98218 112.029 9.92454 112.006 9.87086C111.986 9.81627 111.956 9.7662 111.917 9.7237C111.877 9.6812 111.83 9.64714 111.777 9.6236C111.724 9.60006 111.667 9.58752 111.609 9.58675C111.551 9.58598 111.493 9.59699 111.44 9.61911C109.681 10.0165 108.025 10.7799 106.581 11.8596C106.089 12.3265 105.705 12.8948 105.455 13.5252C105.205 14.1556 105.095 14.8328 105.133 15.5099C105.133 16.1392 106.077 20.2426 106.468 21.9155L106.619 22.5574C106.619 22.7462 106.14 24.4203 114.687 21.8777C115.83 21.6223 116.887 21.076 117.757 20.2917C117.922 20.0651 118.03 19.8008 118.072 19.5239C118.194 18.882 118.266 18.2274 118.286 17.5729C118.349 16.1631 118.286 14.44 118.286 13.1939H118.374C118.501 13.2722 118.645 13.3188 118.794 13.3298C118.943 13.3407 119.092 13.3157 119.23 13.2568C119.79 12.8976 120.302 12.4781 120.765 11.9981C121.835 10.9282 122.715 9.68205 123.709 8.53788C124.092 8.05985 124.513 7.61364 124.968 7.20365C125.054 7.12252 125.109 7.01376 125.123 6.8964C125.136 6.77904 125.108 6.66056 125.044 6.56171ZM119.782 11.0175C118.763 12.0749 119.493 12.0623 116.687 10.2875C116.133 9.93505 115.554 9.5952 114.95 9.26794L113.188 8.39943C113.352 7.7449 113.566 7.14072 113.767 6.43584C114.283 6.91415 114.774 7.41763 115.315 7.87077C115.63 8.1351 115.944 8.37425 116.272 8.60082C116.599 8.82739 116.926 9.05396 117.279 9.26794C118.084 9.75883 118.902 10.1994 119.721 10.6651C119.82 10.7333 119.942 10.7603 120.06 10.7406L119.782 11.0175Z" fill="url(#paint0_linear_0_1)" fill-opacity="0.95"/>
<path fill-rule="evenodd" clip-rule="evenodd" d="M109.248 20.984C109.572 20.7518 109.846 20.4563 110.054 20.1155C110.242 19.8134 110.381 19.7127 110.545 19.398C110.922 18.6428 111.224 17.8876 111.551 17.1449C114.333 17.8498 114.723 16.0121 114.786 15.4457C114.83 14.9918 114.745 14.5347 114.54 14.1274C114.335 13.72 114.019 13.3789 113.628 13.1435C113.269 12.9296 112.867 12.7992 112.451 12.7622C112.034 12.7251 111.615 12.7823 111.224 12.9295C110.849 13.1182 110.527 13.3979 110.287 13.7431C110.047 14.0883 109.898 14.488 109.852 14.9057C109.786 15.2486 109.822 15.6035 109.956 15.9259C110.091 16.2483 110.317 16.524 110.607 16.7182C110.142 17.3224 109.663 17.914 109.198 18.5434L108.594 19.4119C108.381 19.7561 108.232 20.1355 108.153 20.5321C107.989 21.412 108.568 21.4359 109.248 20.984ZM111.312 15.2594C111.34 15.0945 111.405 14.9379 111.5 14.8008C111.596 14.6637 111.721 14.5495 111.866 14.4664C112.035 14.407 112.214 14.3842 112.392 14.3994C112.57 14.4145 112.742 14.4674 112.898 14.5545C113.063 14.6299 113.204 14.75 113.304 14.9013C113.404 15.0527 113.46 15.229 113.465 15.4104C113.465 16.1405 112.772 16.6691 111.564 15.9391C111.445 15.877 111.354 15.7731 111.308 15.6476C111.261 15.5221 111.263 15.3838 111.312 15.2594Z" fill="url(#paint1_linear_0_1)" fill-opacity="0.95"/>
<path d="M0.125977 26.4861L21.7223 20.8838C28.4848 19.1262 29.0524 13.8446 25.9761 10.9974C23.0232 8.26437 18.8229 11.6689 16.4868 14.952C12.5587 20.4725 17.9387 28.3042 24.34 30.4406C29.5219 32.1701 33.2705 29.6197 37.7559 26.4861C40.2802 24.7225 41.5276 20.8291 43.3186 20.8838C44.3003 20.9137 45.5761 26.3093 48.5541 26.4861C51.7125 26.6735 52.2895 20.8838 54.444 20.8838C55.4257 20.8838 55.3153 26.1622 58.3706 26.4861C61.8042 26.8501 61.7896 20.8838 65.2422 20.8838C66.8783 20.8838 76.0404 23.8497 76.0404 23.8497C76.0404 23.8497 78.317 25.6592 79.967 26.4861C85.8017 29.4099 90.21 27.4597 96.655 26.4861C100.823 25.8564 107.126 23.8497 107.126 23.8497" stroke="#62D1F3"/>
<defs>
<linearGradient id="paint0_linear_0_1" x1="105.555" y1="1.35755" x2="128.66" y2="6.31366" gradientUnits="userSpaceOnUse">
<stop stop-color="#161B33"/>
<stop offset="1" stop-color="#161B33"/>
</linearGradient>
<linearGradient id="paint1_linear_0_1" x1="108.268" y1="13.2484" x2="116.035" y2="14.766" gradientUnits="userSpaceOnUse">
<stop stop-color="#161B33"/>
<stop offset="1" stop-color="#161B33"/>
</linearGradient>
</defs>
</svg>
